<?xml version="1.0" encoding="UTF-8"?>
<!DOCTYPE svg PUBLIC "-//W3C//DTD SVG 1.1//EN" "http://www.w3.org/Graphics/SVG/1.1/DTD/svg11.dtd">
<!-- Creator: CorelDRAW 2020 (64-Bit) -->
<svg xmlns="http://www.w3.org/2000/svg" xml:space="preserve" width="127.247mm" height="55.4162mm" version="1.1" style="shape-rendering:geometricPrecision; text-rendering:geometricPrecision; image-rendering:optimizeQuality; fill-rule:evenodd; clip-rule:evenodd"
viewBox="0 0 4236.19 1844.86"
 xmlns:xlink="http://www.w3.org/1999/xlink"
 xmlns:xodm="http://www.corel.com/coreldraw/odm/2003">
 <defs>
  <style type="text/css">
   <![CDATA[
    .fil18 {fill:none;fill-rule:nonzero}
    .fil0 {fill:#007866}
    .fil2 {fill:#FFDD15}
    .fil35 {fill:#2B2A29;fill-rule:nonzero}
    .fil3 {fill:#007866;fill-rule:nonzero}
    .fil4 {fill:#016D5D;fill-rule:nonzero}
    .fil30 {fill:#333457;fill-rule:nonzero}
    .fil27 {fill:#BC2823;fill-rule:nonzero}
    .fil22 {fill:#C3912D;fill-rule:nonzero}
    .fil12 {fill:#CC9933;fill-rule:nonzero}
    .fil24 {fill:#CDA349;fill-rule:nonzero}
    .fil15 {fill:#FBC826;fill-rule:nonzero}
    .fil14 {fill:#FF8926;fill-rule:nonzero}
    .fil7 {fill:#FFAF0C;fill-rule:nonzero}
    .fil9 {fill:#FFC800;fill-rule:nonzero}
    .fil13 {fill:#FFCC5B;fill-rule:nonzero}
    .fil1 {fill:#FFDD15;fill-rule:nonzero}
    .fil8 {fill:#FFE89A;fill-rule:nonzero}
    .fil20 {fill:white;fill-rule:nonzero}
    .fil11 {fill:#24213F;fill-rule:nonzero;fill-opacity:0.109804}
    .fil21 {fill:#333457;fill-rule:nonzero;fill-opacity:0.160784}
    .fil31 {fill:#333457;fill-rule:nonzero;fill-opacity:0.180392}
    .fil10 {fill:#FFEDAC;fill-rule:nonzero;fill-opacity:0.180392}
    .fil29 {fill:#333457;fill-rule:nonzero;fill-opacity:0.200000}
    .fil25 {fill:#FFEDAC;fill-rule:nonzero;fill-opacity:0.219608}
    .fil34 {fill:#FFEDAC;fill-rule:nonzero;fill-opacity:0.309804}
    .fil28 {fill:#333457;fill-rule:nonzero;fill-opacity:0.368627}
    .fil33 {fill:#FFEDAC;fill-rule:nonzero;fill-opacity:0.368627}
    .fil26 {fill:#24213F;fill-rule:nonzero;fill-opacity:0.411765}
    .fil17 {fill:white;fill-rule:nonzero;fill-opacity:0.431373}
    .fil19 {fill:#24213F;fill-rule:nonzero;fill-opacity:0.470588}
    .fil32 {fill:#FFEDAC;fill-rule:nonzero;fill-opacity:0.478431}
    .fil23 {fill:#24213F;fill-rule:nonzero;fill-opacity:0.501961}
    .fil16 {fill:#24213F;fill-rule:nonzero;fill-opacity:0.768627}
    .fil6 {fill:url(#id2);fill-rule:nonzero}
    .fil5 {fill:url(#id3);fill-rule:nonzero}
   ]]>
  </style>
     <mask id="id0">
       <pattern id="id1" patternUnits="userSpaceOnUse" x="2351.88" y="738.08" width="165.7" height="165.7" viewBox="-23047.26 6380.14 165.7 165.7">
        <path id="1" class="fil5" d="M-22881.56 6462.99c0,45.76 -37.1,82.85 -82.85,82.85 -45.76,0 -82.85,-37.09 -82.85,-82.85 0,-45.76 37.09,-82.85 82.85,-82.85 45.76,0 82.85,37.09 82.85,82.85z"/>
       </pattern>
      <rect style="fill:url(#id1)" x="2350.61" y="736.13" width="168.93" height="168.93"/>
     </mask>
  <radialGradient id="id2" gradientUnits="userSpaceOnUse" gradientTransform="matrix(1.00001 -0 -0 1.00001 0 0)" cx="2435.07" cy="820.59" r="83.19" fx="2435.07" fy="820.59">
   <stop offset="0" style="stop-opacity:1; stop-color:#FFDD15"/>
   <stop offset="1" style="stop-opacity:1; stop-color:#FFDD15"/>
  </radialGradient>
  <radialGradient id="id3" gradientUnits="objectBoundingBox" cx="50%" cy="50%" r="50%" fx="50%" fy="50%">
   <stop offset="0" style="stop-opacity:1; stop-color:white"/>
   <stop offset="1" style="stop-opacity:1; stop-color:black"/>
  </radialGradient>
 </defs>
 <g id="Layer_x0020_1">
  <metadata id="CorelCorpID_0Corel-Layer"/>
  <g id="_1909022881008">
   <g>
    <g>
     <g>
      <path class="fil0" d="M1874.75 1428.27c-33.67,67.15 -67.05,133.71 -100.4,200.2 0.17,-0.06 0.83,-0.2 1.3,-0.58 33.72,-26.41 64,-56.16 88.48,-91.49 2.61,-3.76 4.6,-8 6.49,-12.19 14.52,-32.41 35.36,-59.7 65.01,-79.66 15.49,-10.42 32.37,-17.06 51.52,-16.5 9.95,0.29 19.69,1.93 28.3,6.75 17.56,9.81 35.36,9.23 53.64,2.93 0.65,-0.23 1.31,-0.43 2.88,-0.95 -1.04,2.28 -1.75,3.98 -2.58,5.62 -16.68,32.85 -33.63,65.57 -49.91,98.63 -5.22,10.62 -9.36,21.91 -12.72,33.26 -2.99,10.09 2.58,14.67 12.65,11.4 10.44,-3.39 19.35,-9.69 26.25,-17.81 10.1,-11.9 18.94,-24.87 28.28,-37.42 1.26,-1.68 2.26,-3.55 3.64,-5.74 3.43,1.99 6.57,3.83 10.22,5.95 -18.43,26.17 -35.3,52.95 -63.27,69.79 -11.57,6.97 -23.86,10.92 -37.51,10.33 -14.71,-0.64 -26.64,-12.79 -26.51,-27.5 0.01,-1.86 0.82,-3.78 1.53,-5.56 1.55,-3.89 3.28,-7.7 4.93,-11.54 -0.42,-0.27 -0.84,-0.54 -1.25,-0.81 -1.29,1.68 -2.66,3.3 -3.84,5.05 -7.84,11.62 -16.83,22.15 -28.47,30.12 -11.45,7.83 -24.11,11.53 -37.94,9.47 -17.85,-2.65 -29.8,-14.86 -32.4,-32.73 -0.84,-5.72 -1.07,-11.54 -1.66,-18.22 -1.81,2.04 -3.2,3.53 -4.51,5.08 -24.88,29.56 -52.06,56.72 -83.43,79.43 -6.89,4.99 -14.55,8.92 -21.75,13.49 -2.83,1.8 -5.43,3.98 -8.04,6.11 -14.09,11.5 -29.7,19.34 -48.36,17.94 -18.49,-1.38 -34.64,-7.98 -45.19,-24.41 -3.79,-5.89 -5.84,-12.58 -3.97,-19.34 1.02,-3.7 3.89,-7.82 7.11,-9.72 4,-2.37 8.62,-0.4 12.09,3.05 7.09,7.03 9.34,15.96 8.89,25.44 -0.26,5.5 1.81,7.43 6.78,8.57 9.51,2.17 18.43,0.85 25.74,-5.25 6.06,-5.06 11.47,-11.17 16.12,-17.58 4.24,-5.85 7.09,-12.71 10.5,-19.16 11.69,-22.11 19.7,-46.21 36.27,-65.67 -0.36,-0.35 -0.71,-0.7 -1.07,-1.05 -1.44,1.2 -3.01,2.28 -4.31,3.62 -13,13.44 -27.18,25.42 -44.91,31.96 -7.7,2.84 -16.12,4.83 -24.28,5.09 -19.06,0.62 -31.02,-10.78 -32.93,-29.79 -0.15,-1.54 -0.26,-3.09 -0.46,-5.42 -1.8,1.55 -3.13,2.62 -4.36,3.77 -24.81,23.25 -53.67,38.54 -87.4,43.94 -16.36,2.62 -32.8,2.51 -48.55,-3.23 -21.81,-7.96 -34.95,-23.19 -37.11,-46.91 -0.1,-1.17 -0.51,-2.31 -1.04,-4.66 -1.98,2.57 -3.36,4.3 -4.67,6.08 -9.74,13.05 -20.33,25.28 -33.37,35.18 -9.77,7.41 -20.21,13.59 -32.77,14.41 -5.77,0.38 -11.84,0.28 -17.41,-1.08 -14.53,-3.55 -22.94,-17.12 -20.2,-32.46 1.15,-6.39 3.33,-12.71 5.88,-18.71 3.13,-7.35 7.18,-14.31 10.72,-21.49 1.86,-3.79 3.01,-7.79 0.12,-11.6 -2.94,-3.9 -7.35,-3.82 -11.25,-2.67 -5.4,1.6 -10.95,3.47 -15.67,6.44 -14.75,9.27 -26.38,21.56 -33.85,37.57 -6.31,13.54 -13.01,26.92 -19.28,40.49 -1.5,3.25 -3.31,4.28 -6.83,4.23 -14.03,-0.22 -28.06,-0.09 -42.87,-0.09 4.22,-9.04 8.14,-17.43 12.07,-25.82 -0.25,-0.12 -0.51,-0.24 -0.76,-0.36 -4.96,4 -9.79,8.2 -14.92,11.97 -13.15,9.66 -27.73,14.99 -44.31,14.43 -15.59,-0.53 -27.53,-12.34 -27.84,-27.98 -0.07,-3.54 -0.01,-7.07 -0.01,-10.61 -0.49,-0.46 -0.97,-0.92 -1.46,-1.38 -0.85,1.49 -1.38,3.35 -2.61,4.4 -10.2,8.83 -20.21,17.93 -30.92,26.1 -7.76,5.92 -17.29,8.18 -27.02,9.11 -23.31,2.21 -39.81,-16.84 -34.62,-40.61 1.58,-7.21 4.13,-14.45 7.61,-20.95 9.42,-17.56 20.02,-34.5 29.32,-52.13 5.85,-11.1 10.97,-22.74 14.97,-34.62 3.3,-9.78 -1.84,-14.99 -12.06,-12.87 -5.57,1.15 -11.42,3.65 -15.82,7.19 -9.26,7.44 -18.37,15.31 -26.28,24.15 -20.64,23.08 -37.43,48.88 -50.95,76.77 -7.83,16.18 -15.67,32.35 -23.31,48.63 -1.55,3.31 -3.25,4.76 -7.14,4.69 -14,-0.27 -28.01,-0.11 -42.79,-0.11 4.43,-9.43 8.52,-18.17 12.61,-26.9 -0.31,-0.21 -0.63,-0.42 -0.93,-0.63 -2.65,2.25 -5.25,4.57 -7.97,6.74 -14.73,11.77 -30.52,20.9 -50.2,20.99 -20,0.09 -31.46,-12.26 -29.65,-32.33 0.14,-1.56 0.39,-3.13 0.81,-6.36 -2.27,2.23 -3.57,3.43 -4.79,4.72 -12.22,12.93 -25.42,24.54 -42.68,30.32 -11.53,3.87 -23.14,5.71 -34.77,-0.07 -14.13,-7.02 -20.86,-19.79 -18.88,-35.52 2.22,-17.69 9.32,-33.49 18.28,-48.59 8.81,-14.85 18.08,-29.45 26.44,-44.56 3.45,-6.25 6.04,-13.37 7.23,-20.39 1.46,-8.64 -2.42,-13.29 -11.06,-14.44 -5.54,-0.74 -11.31,-0.16 -16.93,0.37 -1.36,0.13 -2.99,2.18 -3.7,3.71 -8.21,17.76 -15.97,35.73 -24.42,53.37 -14.48,30.27 -33.64,57.44 -56.95,81.53 -11.76,12.14 -25.3,22.38 -42.16,26.04 -8.11,1.76 -17.11,2.15 -25.2,0.59 -11.59,-2.24 -19.43,-14.04 -19.33,-25.83 0.02,-1.87 0.78,-3.8 1.48,-5.58 1.55,-3.9 3.29,-7.73 4.95,-11.59 -0.38,-0.28 -0.77,-0.55 -1.15,-0.82 -1.2,1.48 -2.52,2.89 -3.58,4.47 -7.78,11.65 -16.71,22.22 -28.3,30.29 -11.72,8.15 -24.65,11.97 -38.88,9.79 -17.46,-2.68 -29.12,-14.92 -32.05,-32.55 -2.46,-14.8 -0.69,-29.26 4.21,-43.14 14.19,-40.19 38.92,-72.31 75.79,-94.11 25.3,-14.96 51.54,-16.78 78.33,-2.69 13.69,7.21 28.27,5.84 42.7,1.86 2.38,-0.65 4.69,-1.5 7.95,-2.55 -1.08,2.32 -1.79,4.01 -2.63,5.65 -16.68,32.85 -33.63,65.57 -49.91,98.62 -5.23,10.62 -9.36,21.91 -12.72,33.26 -2.98,10.05 2.64,14.63 12.72,11.35 10.44,-3.4 19.16,-9.84 26.27,-17.81 8.63,-9.66 17.04,-19.77 23.84,-30.74 17.17,-27.7 32.72,-56.33 44.17,-86.97 0.56,-1.49 1.08,-2.99 1.72,-4.78 -5.41,-3.65 -8.36,-8.55 -7.52,-15.16 0.39,-0.3 0.64,-0.69 0.93,-0.71 18.08,-1.18 36.16,-2.48 54.26,-3.38 4.56,-0.22 9.28,0.44 13.77,1.42 21.44,4.66 32.85,22.23 27.18,43.66 -2.93,11.05 -7.79,21.72 -12.87,32.03 -9.82,19.95 -20.57,39.44 -30.56,59.31 -2.43,4.83 -4.01,10.32 -4.82,15.67 -0.91,6 2.72,9.6 8.8,9.21 3.62,-0.23 7.54,-1.16 10.61,-2.98 5.78,-3.43 11.71,-7.07 16.41,-11.79 15.51,-15.57 29.36,-32.56 39.23,-52.36 14.38,-28.83 28.47,-57.8 42.66,-86.72 0.84,-1.7 1.48,-3.5 2.42,-5.73 -6.94,-0.35 -13.3,-0.67 -20.61,-1.04 3.13,-5.5 5.73,-10.5 8.82,-15.18 0.71,-1.07 3.22,-1.68 4.68,-1.39 12.57,2.47 19.32,-2.88 23.51,-14.75 3.7,-10.5 9.49,-20.29 14.61,-30.26 0.79,-1.53 2.95,-3.36 4.48,-3.37 16.34,-0.09 32.17,-2.96 48.78,-8.69 -9.44,19.24 -18.44,37.59 -27.83,56.73 12.34,0 23.81,0 36.42,0 -3.18,6 -5.72,11.21 -8.73,16.13 -0.66,1.07 -3.03,1.51 -4.62,1.54 -9.26,0.14 -18.54,-0.13 -27.79,0.23 -1.93,0.07 -4.69,1.76 -5.53,3.46 -19.53,39.58 -38.97,79.21 -58.09,118.99 -3.6,7.48 -6.25,15.53 -8.34,23.57 -0.88,3.37 -0.44,8.98 1.71,10.73 2.44,1.98 8.32,2.3 11.21,0.68 9.08,-5.09 18.26,-10.53 25.9,-17.49 12.99,-11.81 22.99,-26.27 30.6,-42.14 28.93,-60.34 57.73,-120.73 86.39,-181.19 2,-4.22 4.34,-5.07 8.78,-5.47 13.08,-1.2 26.07,-3.39 39.09,-5.22 1.54,-0.22 3.06,-0.61 5.66,-1.13 -0.96,2.33 -1.5,3.88 -2.19,5.35 -17.53,36.79 -34.71,73.75 -52.88,110.22 -4.51,9.07 -12.22,16.55 -18.41,24.8 -1.02,1.35 -1.76,2.91 -2.63,4.37 0.51,0.39 1.02,0.79 1.54,1.18 1.3,-1.44 2.64,-2.84 3.89,-4.31 16.46,-19.56 35.47,-35.52 60.38,-43.27 9.41,-2.92 18.93,-4.88 28.89,-3.09 18.01,3.24 28.47,17.43 25.43,35.55 -1.02,6.07 -2.57,12.34 -5.34,17.77 -10.67,20.92 -22.24,41.39 -32.85,62.33 -5.35,10.58 -10.08,21.58 -13.82,32.81 -2.92,8.77 2.15,13.12 11.03,10.02 4.76,-1.68 9.41,-4.37 13.38,-7.53 19.47,-15.51 35.29,-34.23 46.61,-56.43 13.75,-26.94 27.03,-54.13 40.48,-81.23 1.2,-2.43 2.06,-4.6 5.64,-4.49 15.64,0.5 30.83,-2.19 45.58,-7.39 0.47,-0.17 1.02,-0.12 2.18,-0.23 -1.01,2.16 -1.81,4.01 -2.71,5.82 -17.38,35.09 -34.98,70.07 -52.01,105.33 -4.84,10.03 -8.07,20.84 -12.01,31.3 -0.31,0.82 -0.45,1.72 -0.55,2.6 -1.33,10.9 3.83,15.09 14.31,11.48 9.87,-3.41 17.64,-10.03 24.68,-17.38 12.9,-13.47 23.57,-28.68 31.65,-45.43 28.67,-59.47 57.02,-119.1 85.32,-178.75 1.81,-3.82 3.84,-4.65 7.94,-5.04 13.43,-1.28 26.77,-3.45 40.14,-5.33 1.55,-0.22 3.08,-0.66 5.31,-1.14 -0.78,1.92 -1.27,3.32 -1.91,4.64 -27.66,57.79 -55.29,115.59 -83.12,173.29 -1.71,3.54 -4.95,6.39 -7.71,9.34 -2.82,3.01 -5.93,5.75 -8.91,8.6 0.28,0.38 0.56,0.77 0.85,1.14 0.72,-0.25 1.55,-0.35 2.14,-0.78 18,-13.11 36.34,-25.78 53.83,-39.54 12.56,-9.87 24.26,-20.89 35.81,-31.96 6.91,-6.63 11.25,-15.07 12.52,-24.86 0.19,-1.43 1.49,-3.52 2.7,-3.87 7.4,-2.18 14.93,-3.43 22.6,-1.11 11.02,3.33 15.78,12.66 12.43,24.51 -2.81,9.95 -9.56,16.96 -17.54,22.9 -13.8,10.27 -29.62,16.09 -46.07,20.4 -5.9,1.54 -11.88,2.84 -17.66,5.3 4.64,0.48 9.33,0.71 13.92,1.49 17.47,2.99 25.79,15.93 20.32,32.83 -2.54,7.87 -7.05,15.1 -10.52,22.69 -2.57,5.64 -5.47,11.22 -7.21,17.13 -2.11,7.19 2.69,12.75 10.06,11.52 4.74,-0.8 10.07,-2.46 13.57,-5.52 9.33,-8.17 18.38,-16.83 26.5,-26.2 9.89,-11.42 17.4,-24.25 23.4,-38.48 18.46,-43.82 50.07,-73.81 96.94,-85.99 13.4,-3.49 27.09,-3.96 40.81,-1.72 22.9,3.72 35.77,25.61 28.89,49.99 -6.05,21.4 -19.49,37.84 -36.81,51.17 -25.02,19.24 -53.83,27.69 -85.05,28.8 -2.82,0.1 -5.65,0.02 -8.36,0.02 -6.22,20.04 8.16,38.83 29.9,38.69 21.65,-0.14 41.72,-6.77 60.37,-17.47 25.48,-14.62 45.53,-34.42 58.32,-61.34 12.29,-25.88 25.32,-51.41 37.85,-77.19 1.56,-3.21 3.29,-4.37 6.87,-4.27 14.2,0.4 27.96,-2.37 41.47,-6.52 1.48,-0.46 2.98,-0.91 5.35,-1.62 -4,8.22 -7.6,15.66 -11.25,23.08 -12.5,25.38 -25.24,50.66 -37.44,76.19 -4.27,8.94 -7.51,18.41 -10.65,27.82 -1.63,4.92 -2.16,10.51 2.4,14.44 4.6,3.98 10.25,3.34 15.11,0.82 6.9,-3.58 13.92,-7.36 19.88,-12.28 16.52,-13.61 29.93,-29.94 39.6,-49.16 12.4,-24.65 24.84,-49.28 37.09,-74 1.57,-3.16 3.4,-4.05 6.91,-4.21 13.14,-0.59 26.27,-1.75 39.39,-2.69 1.38,-0.1 2.76,-0.13 4.95,-0.24zm142.45 19.66l0 0c-6.03,-3.25 -12.3,-3.56 -18.69,-2.52 -11.91,1.92 -22.36,7.26 -31.57,14.76 -30.93,25.16 -51.49,57.28 -61.85,95.65 -2.01,7.42 -1.56,15.94 -0.38,23.66 1.26,8.24 8.22,12.01 16.09,9.12 6.36,-2.34 12.62,-5.84 17.89,-10.1 12.31,-9.94 22.28,-22.33 29.78,-36.09 16.6,-30.44 32.21,-61.42 48.21,-92.18 0.3,-0.59 0.32,-1.33 0.54,-2.29zm-1322.08 0.06l0 0c-5.87,-3.02 -11.84,-3.75 -18.72,-2.55 -13.4,2.34 -24.78,8.84 -34.87,17.54 -27.69,23.85 -46.43,53.66 -57.39,88.38 -2.91,9.23 -4.24,18.83 -1.45,28.41 2.28,7.82 8.42,11.67 16,8.9 6.37,-2.32 12.65,-5.76 17.95,-9.98 12.07,-9.66 21.92,-21.7 29.25,-35.14 16.94,-31.07 32.9,-62.66 49.23,-94.05 0.14,-0.27 0.02,-0.69 0.02,-1.49zm833.95 100.84l0 0c13.72,-1.25 24.79,-5.25 35.07,-11.46 27.09,-16.36 44.91,-40.48 57.2,-69.1 1.24,-2.89 1.91,-6.11 2.37,-9.24 0.94,-6.28 1.39,-13 -4.3,-17.15 -5.6,-4.08 -12.09,-1.92 -17.02,1.57 -8.95,6.34 -18.18,12.73 -25.56,20.7 -17.67,19.05 -30.85,41.25 -41.14,65.09 -2.57,5.95 -4.19,12.32 -6.62,19.6z"/>
      <path class="fil0" d="M466.51 1260.22c-48.11,-0.41 -80.78,26.69 -109.07,62.23 -9.71,-8.18 -14.53,-18.41 -15.02,-30.4 -0.81,-19.93 9.17,-34.28 25.2,-44.78 16.09,-10.53 34.42,-13.36 53.13,-13.3 22.39,0.07 43.8,5.09 63.59,15.84 5.57,3.03 10.65,6.94 16.07,10.53 -22.53,47.85 -44.7,94.92 -67.21,142.72 29.16,3.58 54.82,-1.11 76.02,-21.52 11.31,-10.88 19.74,-23.92 26.69,-37.81 7.88,-15.74 14.64,-32.03 22.55,-47.75 5.19,-10.3 10.8,-20.55 17.52,-29.88 18.59,-25.78 44.7,-34.49 75.48,-31.01 5.27,0.59 10.4,2.31 15.63,3.34 3.42,0.68 4.75,2.53 4.37,5.99 -0.24,2.11 0.35,4.38 -0.19,6.38 -0.39,1.44 -1.89,3.43 -3.15,3.64 -12.21,2.09 -21.6,8.6 -29.69,17.64 -12.63,14.12 -21.76,30.33 -29.15,47.62 -5.1,11.94 -10.23,23.88 -15.07,35.92 -14.38,35.73 -40.64,57.09 -78.1,65.03 -2.24,0.47 -4.57,0.63 -6.87,0.69 -6.95,0.18 -13.9,0.23 -20.84,0.36 -0.32,0.01 -0.64,0.24 -2.7,1.07 3.05,1.41 4.93,2.77 6.99,3.15 29.19,5.31 45.33,24.26 46.17,53.98 0.59,20.92 -4.84,40.85 -9.04,61.06 -2.66,12.81 -4.22,25.95 -4.94,39.02 -0.54,9.9 2.93,12.83 12.66,15.31 1.17,0.3 2.69,1.76 2.9,2.9 1.66,8.67 0.5,10.29 -8.07,12.64 -11.51,3.15 -23.11,3.85 -34.91,1.93 -20.08,-3.25 -33.29,-18.05 -35.49,-39.05 -2.18,-20.88 3.14,-40.59 8.07,-60.47 3.51,-14.12 7.46,-28.24 9.31,-42.61 3.47,-26.82 -11.35,-45.64 -37.92,-50.2 -15.16,-2.6 -15.07,-2.56 -21.65,11.32 -29.52,62.21 -58.62,124.63 -88.83,186.5 -16.92,34.64 -37.46,67.21 -63.52,95.94 -25.5,28.12 -55.06,50.2 -92.58,59.37 -44.93,10.98 -87.59,5.92 -125.55,-22.04 -32.19,-23.7 -47.72,-56.64 -49.22,-96.36 -0.2,-5.15 -0.03,-10.32 0.85,-15.88 0.95,1.68 1.97,3.32 2.85,5.04 13.33,26.29 30.97,49.06 54.73,66.76 50.46,37.57 107.81,33.92 153.29,-9.56 25.99,-24.84 45.24,-54.56 60.89,-86.53 22.99,-46.98 44.91,-94.49 67.41,-141.71 25.95,-54.45 52.02,-108.85 78.1,-163.24 2.77,-5.77 5.8,-11.43 8.99,-16.98 7.73,-13.46 18.11,-23.72 33.78,-27.56 2.34,-0.57 4.41,-2.19 6.6,-3.33 -0.36,-0.65 -0.71,-1.29 -1.06,-1.93z"/>
     </g>
     <path class="fil0" d="M3470.57 1545.91c-8.53,9.28 -15.24,17.27 -22.68,24.53 -13.05,12.72 -27.73,22.61 -46.25,26.1 -23.63,4.45 -37.13,-6.47 -36.28,-30.19 0.04,-1.24 0,-2.49 0,-6.32 -4.12,3.85 -6.81,6.29 -9.42,8.81 -13.79,13.29 -28.16,25.08 -48.32,27.85 -21.1,2.91 -39.68,-14.67 -33.65,-34.96 4.49,-15.12 12.5,-29.29 19.75,-43.47 8.18,-16 17.72,-31.29 25.76,-47.36 3.65,-7.27 9.06,-16.65 1.29,-23.53 -8.54,-7.55 -18.48,-1.58 -24.76,4.39 -16.5,15.69 -34.25,31.06 -46.74,49.74 -18.06,27.06 -32.28,56.73 -47.34,85.7 -4.05,7.79 -8.31,11.36 -17.23,10.6 -9.66,-0.82 -19.44,-0.18 -30.86,-0.18 9.13,-19 17.51,-36.57 25.98,-54.11 16.21,-33.56 32.59,-67.05 48.59,-100.7 2.9,-6.13 6.52,-8.36 13.42,-8.72 11.61,-0.61 23.13,-2.98 38.19,-5.1 -10.28,15.27 -19.4,28.82 -28.5,42.37 0.65,0.58 1.3,1.16 1.95,1.74 3.12,-2.86 6.43,-5.52 9.33,-8.57 17.23,-18.25 37.12,-31.88 62.25,-36.8 12.48,-2.44 24.62,-2.29 33.48,8.05 9.3,10.85 9.01,23.76 3.16,35.98 -8.18,17.09 -17.6,33.58 -26.17,50.5 -6.76,13.38 -13.45,26.84 -19.23,40.66 -1.43,3.41 -0.69,10.08 1.71,12.14 2.51,2.13 9.06,2.02 12.39,0.22 7.38,-3.99 15.24,-8.54 20.44,-14.87 13.21,-16.07 26.82,-32.25 37.08,-50.21 15.36,-26.91 27.99,-55.38 42.64,-84.91 -6.99,-0.36 -12.54,-0.66 -18.69,-0.97 2.61,-8.8 6.07,-15.21 16.24,-13.71 7.37,1.09 11.27,-2.62 14.17,-9.12 4.52,-10.13 9.52,-20.08 15.04,-29.71 1.62,-2.85 5.38,-5.64 8.57,-6.23 12.79,-2.35 25.74,-3.84 39.8,-5.82 -7.97,15.97 -15.97,32.01 -25.14,50.38 12.48,0 22.31,0 32.95,0 -1.97,9.88 -6.07,13.64 -15,13.67 -30.46,0.12 -22.42,-4.38 -36.04,22.76 -16.7,33.3 -32.78,66.93 -48.83,100.55 -2.64,5.53 -4.32,11.66 -5.5,17.69 -1.82,9.32 3.17,13.83 12.24,11.22 15.13,-4.35 26.66,-14.42 35.53,-26.61 8.93,-12.26 16.68,-25.65 23.16,-39.39 21.4,-45.38 54.76,-75.26 105.38,-82.94 8.82,-1.34 18.36,-0.34 27.21,1.44 19.8,3.98 30.91,21.79 25.69,41.36 -9.54,35.83 -35.19,56.82 -68.42,68.6 -15.76,5.59 -32.98,7.51 -49.74,9.62 -7.4,0.93 -8.69,3.72 -8.17,9.85 1.62,19.28 16.21,30.71 36.01,28.55 46.5,-5.08 81.91,-28 105.73,-67.7 12.76,-21.24 22.9,-44.04 34.1,-66.2 2.75,-5.45 4.03,-10.66 -1.34,-16 -3.18,-3.15 -3.52,-7.68 2.96,-8 17.92,-0.9 35.89,-2.62 53.77,-2 23.47,0.81 36.75,18.84 29.88,41.1 -4.47,14.5 -12.06,28.09 -18.78,41.84 -6.87,14.1 -14.5,27.82 -21.54,41.83 -2.04,4.05 -3.8,8.43 -4.64,12.84 -1.96,10.14 4.84,16.56 14.32,12.5 8.24,-3.51 17.04,-8.26 22.6,-14.93 13.53,-16.21 26.69,-33.07 37.49,-51.15 12.71,-21.27 22.91,-44.03 33.89,-66.3 2.76,-5.59 6.11,-8.05 12.66,-8.59 12.19,-0.99 24.27,-3.5 37.29,-5.52 -15.59,30.96 -31.05,61.21 -46.04,91.69 -5.47,11.12 -10.06,22.67 -14.58,34.2 -1.39,3.52 -1.64,7.66 -1.63,11.51 0.01,7.75 4.66,10.57 11.69,8.8 4.35,-1.09 8.9,-2.79 12.48,-5.4 20.5,-15 36.2,-33.89 44.62,-58.16 14.6,-42.05 41.6,-71.82 85.58,-82.72 12.8,-3.17 27.48,-3.1 40.43,-0.38 27.95,5.89 42.29,33.49 36.15,64.63 -3.97,20.21 -12.24,38.53 -23.34,55.71 -1.23,1.91 -2.59,3.77 -3.67,5.78 -0.41,0.78 -0.23,1.87 -0.43,4.01 3.5,-0.48 6.65,-0.6 9.64,-1.37 18.94,-4.88 34.41,-15.52 43.91,-32.31 13.68,-24.14 25.63,-49.27 38.16,-74.06 2.52,-4.99 4.16,-9.81 -1.12,-15.03 -3.5,-3.47 -3.16,-8.21 3.64,-8.58 16.61,-0.89 33.28,-2.75 49.85,-2.19 27.75,0.92 40.9,19.91 31.58,46.25 -5.29,14.97 -13.85,28.77 -20.94,43.1 -7.11,14.35 -14.79,28.46 -20.96,43.19 -1.93,4.58 -1.71,14.03 0.95,15.64 4.2,2.55 13,2.68 16.81,-0.21 11.85,-8.97 22.66,-19.46 33.11,-30.1 5.9,-6.01 10,-13.77 15.57,-20.18 1.76,-2.03 5.65,-2.23 9.35,-1.67 -17.44,26.56 -33.62,53.76 -63.02,67.48 -9.82,4.59 -22.24,7.52 -32.71,6 -20.83,-3.03 -30.45,-19.77 -23.64,-41.29 5.45,-17.22 14.36,-33.44 22.61,-49.67 6.95,-13.67 16.17,-26.23 22.56,-40.12 7.9,-17.15 -0.47,-27.58 -19.15,-26 -6.16,0.52 -9.69,3.25 -12.44,9.1 -10.97,23.37 -21.99,46.74 -34.13,69.5 -14.15,26.51 -34.66,46.73 -65.47,51.31 -13.57,2.01 -24.09,7.41 -35.24,14.38 -19.94,12.45 -42.02,17.58 -65.69,12.99 -24.81,-4.82 -38.83,-19.65 -42.36,-44.84 -0.22,-1.53 -0.74,-3.03 -1.64,-6.56 -3.28,3.52 -5.74,5.79 -7.75,8.39 -11.74,15.11 -24.38,29.39 -42.15,37.42 -7.89,3.56 -16.68,6.1 -25.26,6.92 -18.14,1.74 -30.65,-10.4 -31.02,-28.55 -0.04,-2.11 0,-4.2 0,-8.52 -7.31,6.73 -12.91,12.02 -18.63,17.16 -11.2,10.06 -24.12,16.41 -39.06,19.18 -23.53,4.36 -42.21,-14.15 -37.99,-37.71 3.8,-21.17 14.79,-38.91 25.54,-56.9 7.52,-12.6 14.81,-25.39 21.55,-38.45 3.35,-6.51 5.02,-14.24 -1.35,-19.99 -6.93,-6.23 -15.79,-6.56 -23.95,-3.12 -3.21,1.34 -5.66,5.85 -7.25,9.45 -14.24,31.98 -27.91,64.36 -50.69,91.47 -28.99,34.55 -66.51,53.37 -111.54,56.05 -27.8,1.66 -51.59,-11.65 -60.09,-32.38 -2.29,-5.58 -3.46,-11.6 -5.64,-19.15zm551.32 -87.5l0 0c-3.3,-6.93 -4.87,-16.31 -10.33,-20.23 -8.01,-5.75 -17.73,-1.24 -25.26,4.61 -5.66,4.39 -11.2,9.16 -15.79,14.61 -21.8,25.9 -36.7,55.56 -45.16,88.24 -2.24,8.62 -2.49,18.08 -1.9,27.04 0.85,12.52 9.61,18.29 21.25,13.85 7.11,-2.71 14.93,-6.79 19.42,-12.58 12.91,-16.7 25.53,-33.89 35.97,-52.18 10.82,-18.98 18.71,-39.58 21.81,-63.35zm-507.3 81.97l0 0c3.85,-0.27 7.14,0.07 10.08,-0.8 41.13,-12.18 65.03,-41.69 79.92,-80.09 0.81,-2.08 1.02,-4.47 1.18,-6.74 1,-13.52 -7.33,-19.56 -19.87,-14.34 -3.29,1.38 -6.56,3.08 -9.4,5.22 -30.09,22.63 -48.1,53.72 -61.19,88.15 -0.86,2.26 -0.46,5 -0.71,8.59z"/>
     <path class="fil0" d="M2514.82 1559.9c5.14,-0.42 7.71,-0.25 10.08,-0.87 22.44,-5.9 39.18,-18.98 49.4,-39.95 12.46,-25.56 24.91,-51.14 37.04,-76.85 2.75,-5.82 6.28,-7.77 12.76,-8.11 11.61,-0.63 23.15,-2.85 38.44,-4.9 -10.29,15.28 -19.27,28.61 -28.25,41.94 1.41,1.16 2.84,2.31 4.25,3.47 2.01,-3.24 3.6,-6.85 6.09,-9.65 16.74,-18.75 36.44,-33.09 61.72,-37.35 7.41,-1.26 15.86,-0.66 22.98,1.69 12.79,4.23 16.42,16.92 9.6,28.41 -1.75,2.96 -3.29,6.07 -4.91,9.1 0.69,0.65 1.38,1.3 2.07,1.95 2.37,-2.1 4.92,-4.02 7.08,-6.33 16.03,-17.05 34.44,-30.23 57.9,-34.73 5.7,-1.1 11.74,-1.44 17.52,-0.96 11.48,0.99 20.22,8.84 20.14,20.3 -0.08,10.79 -1.04,22.52 -5.36,32.15 -8.4,18.73 -19.76,36.12 -29.24,54.4 -5.22,10.1 -9.91,20.64 -13.37,31.46 -3.05,9.52 3.4,15.08 12.53,10.96 7.31,-3.3 14.56,-7.74 20.33,-13.26 16.09,-15.38 30.03,-32.1 39.15,-53.21 19.6,-45.33 53.39,-74.62 103.29,-82.11 10.37,-1.56 21.77,-0.68 31.94,1.98 20.41,5.32 28.79,28.2 19.08,50.65 -13.64,31.54 -38.66,50.8 -70.78,60.38 -16.41,4.89 -33.75,6.62 -51.03,9.83 -4.96,21.46 10.31,38.67 33.45,36.35 43.28,-4.34 77.15,-24.85 102.13,-60.24 3.25,-4.6 5.88,-9.46 11.94,-1.98 -15.57,25.41 -37.11,44.47 -63.8,57.45 -23.85,11.6 -48.87,17.58 -75.87,14.1 -24.49,-3.16 -41.61,-17.45 -47.2,-41.54 -0.65,-2.83 -1.61,-5.58 -2.89,-9.93 -3.11,3.33 -5.32,5.97 -7.82,8.3 -12.86,11.98 -25.05,24.86 -38.95,35.5 -10.48,8.03 -23.64,10.9 -37.19,7.44 -13.39,-3.43 -23.4,-17.5 -19.74,-30.68 3.72,-13.35 9.18,-26.39 15.26,-38.88 9.85,-20.24 21.18,-39.74 31.13,-59.94 2.95,-5.99 7.41,-13.91 -0.45,-19.59 -7.29,-5.28 -14.56,-1.03 -20.87,3.15 -24.81,16.39 -40.82,40.36 -54.42,65.9 -12.45,23.34 -23.98,47.22 -35.03,71.27 -3.93,8.56 -8.96,11.54 -18.01,10.81 -9.35,-0.75 -18.81,-0.16 -29.47,-0.16 1.45,-3.86 2.22,-6.6 3.45,-9.12 17.9,-36.73 36.07,-73.34 53.63,-110.22 3.44,-7.21 5.59,-15.39 6.52,-23.32 1.06,-9.12 -4.16,-12.93 -12.81,-9.4 -7.12,2.92 -14.13,7.05 -19.95,12.09 -26.42,22.85 -44.85,51.82 -60.85,82.41 -8.48,16.22 -16.29,32.8 -23.95,49.42 -2.88,6.23 -6.71,8.68 -13.64,8.29 -10.38,-0.59 -20.81,-0.15 -32.91,-0.15 6.33,-13.84 12.06,-26.39 18.97,-41.49 -5.01,2.01 -7.46,3.08 -9.97,3.99 -8.88,3.22 -17.69,8.66 -26.71,9.03 -12.74,0.52 -21.86,6.24 -31.69,12.86 -17.6,11.87 -37.63,16.54 -58.73,15.53 -34.26,-1.63 -55.02,-27.21 -51.54,-62.83 4.76,-48.63 43.38,-94.16 90.54,-104.75 12.07,-2.7 25.35,-2.68 37.67,-0.98 22.46,3.09 37.74,22.34 39.23,45.08 1.84,28.24 -8.88,52.35 -23.4,75.39 -1.69,2.69 -3.38,5.39 -6.55,10.44zm-102.55 3.45l0 0c0.43,8.72 0.06,17.97 9.03,22.56 9.31,4.78 17.89,0.46 25.42,-5.24 4.93,-3.73 9.68,-7.9 13.77,-12.52 22.67,-25.79 37.5,-55.87 46.15,-88.83 2.58,-9.8 3.09,-20.64 2.04,-30.74 -1.1,-10.63 -8.03,-14.97 -18.29,-11.65 -8.06,2.61 -16.37,7.18 -22.35,13.12 -27.13,26.98 -42.91,60.53 -53.08,96.95 -1.47,5.29 -1.83,10.9 -2.7,16.36zm482.51 -23.07l0 0c6.2,-0.42 10.12,0.02 13.59,-1.02 40.68,-12.15 64.33,-41.64 78.56,-79.61 2.17,-5.81 0.39,-15.89 -3.61,-20.55 -5.53,-6.48 -13.84,-1.34 -20.52,2.19 -0.58,0.3 -1.14,0.65 -1.67,1.03 -33.02,24.06 -51.63,57.77 -66.35,97.96z"/>
     <path class="fil0" d="M2271.15 1338.69c-35.04,-0.84 -59.41,19.05 -80.73,44.17 -10.53,-8.44 -13.26,-23.25 -6.95,-35.64 7.53,-14.78 20.89,-21.7 36.19,-24.08 23.84,-3.72 46.89,-0.59 68.25,11.71 5.94,3.42 7.26,6.67 4.04,13.29 -18.74,38.5 -37.02,77.23 -55.4,115.9 -1.77,3.75 -3.26,7.63 -5.42,12.74 4.05,0.37 6.79,0.82 9.54,0.83 23.23,0.06 46.48,-0.41 69.69,0.27 8.4,0.24 12.12,-3.18 15.45,-10.12 20.49,-42.75 41.48,-85.26 61.9,-128.03 3.74,-7.82 7.58,-12.43 17.36,-12.06 9.87,0.37 19.84,-1.96 31.54,-3.31 -5.88,12.71 -10.94,23.92 -16.21,35.03 -31.56,66.44 -63.39,132.74 -94.53,199.38 -5.36,11.48 -7.78,24.33 -11.55,36.55 0.98,0.71 1.95,1.42 2.93,2.13 -5.71,0.71 -11.44,2.14 -17.11,2 -17.96,-0.41 -27.69,-12.74 -21.44,-29.63 7.58,-20.47 17.55,-40.05 26.51,-60 2.61,-5.82 5.3,-11.63 8.07,-17.69 -15.97,0 -30.43,-0.23 -44.9,0.07 -11.42,0.23 -22.82,1.35 -34.25,1.62 -8.34,0.19 -13.58,3.24 -17.25,11.36 -12.54,27.68 -26.15,54.89 -38.76,82.56 -3.02,6.61 -6.85,9.14 -13.83,9.59 -11.32,0.74 -22.56,2.52 -36,4.12 16.57,-34.51 32.64,-68 49.53,-103.19 -7.74,0 -13.21,-0.58 -18.51,0.09 -22.21,2.83 -25.39,1.2 -35.68,-20.73 18.37,0 36.24,-0.42 54.09,0.19 7.76,0.26 11.7,-2.45 14.93,-9.34 14.02,-29.9 28.59,-59.52 42.89,-89.28 7.5,-15.6 15.72,-30.42 34.23,-35.33 1.27,-0.34 2.48,-0.94 3.71,-1.42 -0.78,-1.25 -1.55,-2.51 -2.34,-3.77z"/>
     <path class="fil0" d="M3117.01 1596.46c-9.58,4.5 -19.14,4.55 -28.57,0.77 -9.01,-3.61 -14.07,-13.97 -11.48,-24.51 1.92,-7.87 4.59,-15.71 8.11,-22.98 28.04,-57.93 56.39,-115.72 84.58,-173.59 7.07,-14.5 15.75,-27.22 32.47,-31.82 0.9,-0.25 1.78,-0.87 2.47,-1.52 0.4,-0.37 0.38,-1.17 0.55,-1.78 -16.75,-8.41 -48.72,7.74 -81.54,41.18 -9.75,-4.74 -13.54,-17.93 -8.45,-31.17 6.41,-16.66 20.22,-24.58 36.48,-28 24.27,-5.1 47.23,-0.66 68.8,11.67 6.39,3.66 7.41,7.14 4.12,14.02 -32.77,68.68 -65.21,137.53 -97.65,206.39 -6.1,12.95 -12.76,25.89 -9.89,41.35z"/>
     <path class="fil0" d="M1333.66 1399.02c-16.08,0.02 -29.71,-12.79 -29.81,-28 -0.11,-17.37 15.15,-32.51 32.86,-32.6 16.58,-0.09 30.1,12.92 30.03,28.9 -0.07,16.98 -15.41,31.67 -33.08,31.7z"/>
     <path class="fil0" d="M3889.17 1343.43c15.28,-0.03 28.13,11.82 27.81,25.63 -0.34,14.96 -15.02,28.41 -30.89,28.31 -15.16,-0.09 -26.72,-11.08 -26.59,-25.32 0.14,-16.23 12.95,-28.59 29.66,-28.62z"/>
    </g>
   </g>
   <g>
    <path class="fil1" d="M2750.51 1028.73l0 -15.88 -298.44 0 0 15.88 53.81 0c3.18,14.18 16.36,87.99 -41.37,133.45l9.69 12.31c26.7,-21.02 43.43,-50.37 48.93,-85.38l102.82 0 0 -15.67 -101.1 0c1.18,-19.7 -1.24,-36.07 -2.95,-44.71l158.77 0c-1.81,9.11 -4.39,26.79 -2.73,47.92 3.18,40.54 20.62,74.37 50.43,97.84l9.69 -12.31c-58.34,-45.93 -44.76,-119.06 -41.39,-133.45l53.83 0z"/>
    <path class="fil2" d="M461.49 1014.45l0 17.11c350.98,-139.44 706.21,-236.45 1068,-267.89l0 -56.38c-287.71,34.9 -631.18,124.91 -1068,307.16z"/>
    <path class="fil2" d="M4100.42 1014.45l0 17.11c-350.98,-139.44 -706.21,-236.45 -1068,-267.89l0 -56.38c287.71,34.9 631.18,124.91 1068,307.16z"/>
    <polygon class="fil3" points="1717.76,1257.17 1702.17,1257.17 1702.17,524.71 1717.76,524.71 "/>
    <polygon class="fil3" points="1773.86,1257.17 1758.27,1257.17 1758.27,368.87 1773.86,368.87 "/>
    <g>
     <path class="fil1" d="M2234.97 924.75c-4.25,-1.83 -8.65,-2.89 -13.02,-3.27 0.03,-35.88 -4.99,-59.57 -15.32,-72.35 -26.34,-32.6 -97.1,-36.11 -126.3,-36.11 -29.2,0 -99.96,3.51 -126.3,36.11 -10.36,12.82 -15.38,36.6 -15.32,72.64 -3.55,0.52 -7.08,1.5 -10.53,2.98 -21.3,9.17 -31.18,33.97 -22.01,55.28l50.74 117.83c6.65,15.45 21.82,25.44 38.64,25.44l13.57 0 -8.27 37.24 13.87 0 15.7 -37.24 101.52 0 15.7 37.24 13.87 0 -8.27 -37.24 14.36 0c16.83,0 31.99,-9.99 38.64,-25.44l50.73 -117.83c9.18,-21.32 -0.7,-46.11 -22,-55.29zm7.42 49.01l0 0 -50.74 117.83c-4.14,9.62 -13.59,15.84 -24.06,15.84l-172.05 0c-10.47,0 -19.92,-6.22 -24.06,-15.84l-50.74 -117.83c-5.71,-13.27 0.43,-28.71 13.7,-34.42 13.27,-5.72 28.71,0.44 34.42,13.7l14.94 34.7c3.97,-2.61 8.68,-4.98 14.26,-7.01l-14.62 -33.96c-5.45,-12.65 -16.41,-21.27 -28.87,-24.27 -0.14,-40.06 6.3,-56.59 11.79,-63.38 15.29,-18.92 57.88,-30.21 113.95,-30.21 56.07,0 98.66,11.3 113.95,30.21 5.52,6.83 12,23.51 11.79,64.07 -11.42,3.5 -21.3,11.78 -26.37,23.58l-14.73 34.21c5.57,2.09 10.26,4.52 14.19,7.19l15.12 -35.13c5.71,-13.26 21.16,-19.41 34.42,-13.7 13.27,5.71 19.41,21.16 13.7,34.43z"/>
     <path class="fil1" d="M2153.84 985.78c-16.72,-4.37 -34.85,-8.3 -72.66,-8.3 -37.81,0 -55.95,3.93 -72.66,8.3 -30.81,8.07 -37.28,25.68 -37.28,39.04 0,21.67 17.62,39.29 39.29,39.29l141.3 0c21.67,0 39.3,-17.63 39.3,-39.29 0,-13.36 -6.47,-30.97 -37.29,-39.04zm-2.01 62.45l0 0 -141.3 0c-12.91,0 -23.42,-10.51 -23.42,-23.42 0,-7.31 2.64,-17.71 25.43,-23.68 16.27,-4.26 32.67,-7.78 68.64,-7.78 35.97,0 52.37,3.52 68.64,7.78 22.79,5.97 25.43,16.37 25.43,23.68 0,12.91 -10.51,23.42 -23.42,23.42z"/>
    </g>
    <polygon class="fil3" points="2855.42,1257.17 2839.84,1257.17 2839.84,303.06 2855.42,303.06 "/>
    <polygon class="fil3" points="2920.86,1257.17 2905.27,1257.17 2905.27,434.32 2920.86,434.32 "/>
    <polygon class="fil3" points="1642.96,1176.13 1642.96,1160.55 3008.14,1160.55 3008.14,1176.13 "/>
    <polygon class="fil3" points="2048.15,644.08 2048.15,628.5 2961.38,628.5 2961.38,644.08 "/>
    <polygon class="fil4" points="3077.25,622.39 3070.19,636.29 1844.65,13.9 1851.7,0 "/>
    <polygon class="fil3" points="1505.22,867.85 1514.99,879.99 2486.81,97.45 2477.04,85.31 "/>
    <path class="fil4" d="M2383.57 1070.02c0.39,-3.99 -2.55,-7.26 -6.57,-7.26l-14.01 0c0.75,-3.25 1.52,-6.61 2.57,-9.99 1.32,-4.59 2.68,-9.33 4.07,-14.14 1.26,-4.86 3.13,-9.59 4.76,-14.42 1.69,-4.82 3.37,-9.63 5.02,-14.37 1.75,-4.7 3.82,-9.19 5.63,-13.63 1.86,-4.41 3.66,-8.68 5.36,-12.72 1.59,-4.12 3.66,-7.72 5.34,-11.16 6.95,-13.69 11.58,-22.81 11.58,-22.81 0,0 -5.12,8.87 -12.81,22.17 -1.89,3.36 -4.16,6.88 -5.97,10.89 -1.94,3.97 -3.97,8.14 -6.08,12.47 -2.06,4.35 -4.39,8.76 -6.42,13.39 -1.93,4.67 -3.88,9.44 -5.85,14.2 -1.9,4.76 -4.07,9.45 -5.61,14.29 -1.35,3.89 -2.65,7.68 -3.96,11.41l15.35 -144.58 -20.7 142.69 -1.76 -116.65 -4.97 117.8c-0.06,-0.27 -0.12,-0.51 -0.18,-0.78 -1.59,-7.06 -3.39,-15.31 -5.7,-24.08 -2.22,-8.78 -4.58,-18.15 -6.95,-27.52 -9.48,-37.43 -18.94,-74.85 -18.94,-74.85 0,0 7.26,37.89 14.54,75.76 1.82,9.46 3.64,18.92 5.34,27.77 1.24,6.1 2.24,11.93 3.14,17.32 -1.23,-1.97 -2.47,-3.97 -3.68,-5.98 -2.61,-4.14 -4.96,-8.43 -7.65,-12.16 -2.67,-3.73 -5.15,-7.22 -7.28,-10.2 -4.24,-5.95 -7.07,-9.92 -7.07,-9.92 0,0 2.35,4.28 5.9,10.68 1.76,3.19 3.82,6.89 6.02,10.88 2.21,3.95 4.05,8.5 6.16,12.85 2.02,4.41 4.13,8.77 5.95,12.92 1.72,4.19 3.34,8.09 4.72,11.44 0.16,0.37 0.28,0.69 0.42,1.02l-13.03 0c-4.01,0 -6.97,3.26 -6.57,7.26l9.14 91.06 41.61 0 9.14 -91.06z"/>
    <path id="1" class="fil6" style="mask:url(#id0)" d="M2518.27 820.59c0,45.95 -37.25,83.19 -83.2,83.19 -45.95,0 -83.19,-37.25 -83.19,-83.19 0,-45.95 37.24,-83.19 83.19,-83.19 45.95,0 83.2,37.25 83.2,83.19z"/>
    <polygon class="fil4" points="2481.71,800.24 2441.84,747.36 2441.84,718.81 2438.88,718.81 2438.88,636.29 2431.26,636.29 2431.26,718.81 2428.3,718.81 2428.3,747.36 2388.42,800.24 "/>
   </g>
   <g>
    <path class="fil7" d="M1866.87 1771.02c-3.07,-3.6 -3.12,-8.09 -3.52,-7.97 -0.06,0.02 -0.11,0.03 -0.16,0.06 -0.54,0.2 -0.67,0.6 -0.88,1.18 -0.16,0.42 -0.36,0.94 -0.81,1.54 -0.29,0.39 -0.67,0.8 -1.2,1.25 -1.51,1.27 -3.74,0.96 -5.36,0.01 -1.36,-0.8 -2.91,-2.51 -3.81,-3.71 -0.48,-0.62 -0.77,-1.1 -0.77,-1.23 0.05,0.02 0.11,0.03 0.17,0.04 -0.11,-0.09 -0.17,-0.09 -0.17,-0.04 -0.7,-0.17 -1.28,-0.28 -1.76,-0.36 -2.15,-0.36 -2.56,-0.18 -3.63,-1.25 -0.15,-0.15 -0.31,-0.33 -0.5,-0.54 -0.51,-0.59 -0.94,-1.59 -1.27,-2.85 -0.73,-2.79 -1,-6.84 -0.7,-10.42 0.07,-0.87 0.17,-1.71 0.31,-2.5 0.49,-2.77 1.4,-4.87 2.8,-5.22 0.11,-0.03 0.22,-0.04 0.33,-0.05 -1.63,1.42 -0.6,1.87 1.41,-0.2 0.41,-0.44 1.77,-1.34 2.74,-1.69 0.36,-0.13 0.67,-0.18 0.85,-0.1 0.17,0.07 0.29,0.12 0.37,0.17 0.41,0.23 -0.02,0.29 0.06,1.31 0.09,1.19 1.44,-2.63 3.01,-5.01 1.74,-2.62 5.05,-4.54 7.55,-2.37 0.01,0.01 0.02,0.02 0.02,0.02 0.3,0.26 0.59,0.59 0.86,0.97 0.6,0.87 12.73,-6.72 14.69,-3.32 0.64,1.1 0.79,2.58 0.69,4.21 0.17,-0.01 0.34,-0.01 0.52,-0.01 0.74,-3.18 2.03,-1.72 2.58,0.2 1.83,0.26 3.55,0.75 4.1,1.36 0.14,0.16 0.25,0.32 0.34,0.48 0.94,0.3 1.3,0.85 1.4,1.52 0.04,-0.08 0.08,-0.13 0.12,-0.12 0.6,0.12 0.45,4.92 0.16,10.35 -0.34,6.48 -0.89,13.87 -0.6,15.25 -0.12,-0.02 -0.23,-0.09 -0.33,-0.2 -0.04,0.09 -0.09,0.17 -0.17,0.23 -0.33,0.3 -0.69,0.46 -1.1,0.53 -0.29,0.51 -0.84,0.95 -1.82,1.32 -2.5,0.95 -3.61,-2.14 -2.25,0.93 0.44,1 -1.75,2.65 -2.44,2.67 -1.84,0.1 -1.69,-1.42 -2.04,-3.11 -0.06,-0.28 -0.09,-0.45 -0.11,-0.52 0.03,0.42 0.67,5.01 -0.48,6.45 -2.39,2.97 -6.48,3.96 -9.23,0.74z"/>
    <path class="fil8" d="M1897.31 1718.76c-0.09,0.26 -0.17,0.52 -0.25,0.79 0.19,-0.36 0.3,-0.64 0.25,-0.79z"/>
    <path class="fil9" d="M2147.09 1747.58c-4.04,-3.12 -8.06,-6.23 -12.24,-9.16 -8.37,-5.86 -16.34,-12.28 -24.64,-18.26 -16.73,-12.07 -34.12,-23.05 -51.29,-34.46 -7.61,-5.06 -15.44,-9.5 -23.58,-13.61 -5.84,-2.97 -11.43,-6.47 -17.65,-8.87 -13.21,-5.08 -28.02,-8.74 -42.54,-6.6 -15.46,2.26 -32.28,8.61 -43.08,20.58 -3.44,3.82 -7.48,6.73 -10.71,10.88 -1.67,2.15 -12.34,14.66 -14.2,17.26 -3.2,4.52 -8.03,8.02 -9.85,13.43 0.05,0.15 -0.06,0.44 -0.25,0.8 0.08,-0.27 0.16,-0.54 0.25,-0.8 -2.09,0.86 -5.08,7.49 -6.27,9.27 -1.32,1.99 -2.34,3.08 -2.87,5.59 -1.11,5.22 -1.11,10.87 -1.22,16.21l263.01 0c-0.03,-0.38 -2.88,-2.27 -2.88,-2.27zm-253.78 -0.83l0 0 0 0.33c-0.04,-0.08 -0.04,-0.2 0,-0.33z"/>
    <path class="fil10" d="M2147.09 1747.58c-4.04,-3.12 -8.06,-6.23 -12.24,-9.16 -8.37,-5.86 -16.34,-12.28 -24.64,-18.26 -16.73,-12.07 -34.12,-23.05 -51.29,-34.46 -7.61,-5.06 -15.44,-9.5 -23.58,-13.61 -5.84,-2.97 -11.43,-6.47 -17.65,-8.87 -13.21,-5.08 -28.02,-8.74 -42.54,-6.6 -15.46,2.26 -32.28,8.61 -43.08,20.58 -3.44,3.82 -7.48,6.73 -10.71,10.88 -1.67,2.15 -12.34,14.66 -14.2,17.26 -3.2,4.52 -8.03,8.02 -9.85,13.43 0.05,0.15 -0.06,0.44 -0.25,0.8 0.08,-0.27 0.16,-0.54 0.25,-0.8 -2.09,0.86 -5.08,7.49 -6.27,9.27 -1.32,1.99 -2.34,3.08 -2.87,5.59 -1.11,5.22 -1.11,10.87 -1.22,16.21l263.01 0c-0.03,-0.38 -2.88,-2.27 -2.88,-2.27zm-253.78 -0.83l0 0 0 0.33c-0.04,-0.08 -0.04,-0.2 0,-0.33z"/>
    <path class="fil9" d="M1980.09 1844.53c-5.21,-0.9 -10.28,-0.98 -15.44,-2.43 -5.46,-1.54 -10.8,-3.77 -15.86,-6.34 -9.09,-4.64 -17.51,-10.93 -24.45,-18.4 -2.82,-3.03 -6.07,-6.47 -8.55,-10.01l0 -0.01 -0.02 -0.03 -4.84 -5.3c-1.18,-0.07 -3.39,-6.56 -4.62,-7.97 -2.27,-2.58 -5.05,-4.59 -7.01,-7.46 -1.46,-2.14 -2.48,-4.34 -3.07,-6.61 -0.76,-0.56 -1.5,-1.25 -2.18,-1.98 -0.26,-0.17 -0.45,-0.26 -0.46,-0.22 0.02,-0.04 0.05,-0.11 0.1,-0.19 -1.09,-1.25 -1.96,-2.61 -2.44,-3.71 -1.14,-2.62 -2.97,-4.21 -3.6,-7.15 -1.1,-5.18 -0.83,-10.91 -0.72,-16.19 0.01,-0.22 0.01,-0.44 0.02,-0.66l263.01 0c0.15,1.67 -3.45,3.57 -4.8,4.56 -16.09,11.68 -31.81,22.98 -47.81,34.63 -18.8,13.68 -38.11,26.96 -58.18,38.82 -4.73,2.81 -9.86,3.98 -14.68,6.48 -3.27,1.68 -6.97,3.5 -10.71,4.7 -4.95,1.59 -10.1,2.63 -15.19,3.68 -5.76,1.18 -12.6,2.84 -18.51,1.8z"/>
    <path class="fil11" d="M1980.09 1844.53c-5.21,-0.9 -10.28,-0.98 -15.44,-2.43 -5.46,-1.54 -10.8,-3.77 -15.86,-6.34 -9.09,-4.64 -17.51,-10.93 -24.45,-18.4 -2.82,-3.03 -6.07,-6.47 -8.55,-10.01l0 -0.01 -0.02 -0.03 -4.84 -5.3c-1.18,-0.07 -3.39,-6.56 -4.62,-7.97 -2.27,-2.58 -5.05,-4.59 -7.01,-7.46 -1.46,-2.14 -2.48,-4.34 -3.07,-6.61 -0.76,-0.56 -1.5,-1.25 -2.18,-1.98 -0.26,-0.17 -0.45,-0.26 -0.46,-0.22 0.02,-0.04 0.05,-0.11 0.1,-0.19 -1.09,-1.25 -1.96,-2.61 -2.44,-3.71 -1.14,-2.62 -2.97,-4.21 -3.6,-7.15 -1.1,-5.18 -0.83,-10.91 -0.72,-16.19 0.01,-0.22 0.01,-0.44 0.02,-0.66l263.01 0c0.15,1.67 -3.45,3.57 -4.8,4.56 -16.09,11.68 -31.81,22.98 -47.81,34.63 -18.8,13.68 -38.11,26.96 -58.18,38.82 -4.73,2.81 -9.86,3.98 -14.68,6.48 -3.27,1.68 -6.97,3.5 -10.71,4.7 -4.95,1.59 -10.1,2.63 -15.19,3.68 -5.76,1.18 -12.6,2.84 -18.51,1.8z"/>
    <path class="fil12" d="M340.49 1760.91c-4.1,0 -7.69,-2.18 -9.68,-5.45 -1.05,-1.71 -1.64,-3.72 -1.64,-5.87 0,-6.26 5.08,-11.34 11.34,-11.32 59.35,0.15 1475.55,0.82 1477.74,0.82 1.57,-0.01 3.08,-0.01 4.65,-0.04 3.13,-0.07 6.31,-0.04 9.44,0.02 1.97,0.05 8.51,-0.9 9.68,0.14 0.23,0.2 0.34,0.61 0.36,1.16 0.08,1.75 -0.68,4.85 -0.95,6.36 -0.05,0.27 -0.07,0.47 -0.08,0.63 -0.12,2.14 -0.16,4.34 -0.07,6.49 0.08,1.37 1.11,4.31 0.77,5.36 -0.09,0.29 -0.15,0.53 -0.2,0.72 -0.35,1.49 0.41,0.15 -2.29,0.74 -1.75,0.38 -3.97,-0.13 -5.79,-0.17 -4.65,-0.1 -9.17,0.18 -13.84,0.41 -0.38,0.02 -1419.78,0.02 -1479.46,0.02z"/>
    <path class="fil1" d="M1866.87 1771.02c-3.07,-3.6 -3.12,-8.09 -3.52,-7.97 -0.06,0.02 -0.11,0.03 -0.16,0.06 -0.06,0.98 -0.15,1.61 -0.26,1.65 -0.25,0.07 -0.45,-0.11 -0.62,-0.47 -0.16,0.42 -0.36,0.94 -0.81,1.54 -0.05,1.09 -0.49,2.08 -1.83,3.22 -1.62,1.36 -3.99,1.03 -5.72,0.02 -2.56,-1.5 -2.3,-2.66 -2.64,-4.84 -0.05,-0.29 -0.1,-0.59 -0.16,-0.85 -0.48,-0.62 -0.77,-1.1 -0.77,-1.23 -0.7,-0.17 -1.28,-0.28 -1.76,-0.36 0.13,1.07 0.33,1.82 0.61,2.04 -2.17,-0.39 -3.46,-1.65 -4.23,-3.3 -0.15,-0.15 -0.31,-0.33 -0.5,-0.54 -0.51,-0.59 -0.94,-1.59 -1.27,-2.85 0.38,2.22 0.97,5.98 -0.47,4.34 -0.32,-0.38 -0.62,-0.91 -0.88,-1.56 -0.35,1.49 0.41,0.15 -2.29,0.74 -1.75,0.38 -3.97,-0.13 -5.79,-0.17 -4.65,-0.1 -9.17,0.18 -13.84,0.41 -0.38,0.02 -1419.78,0.02 -1479.46,0.02 -4.1,0 -7.69,-2.18 -9.68,-5.45 2.24,-6 6.56,-10.05 11.53,-10.03 55.48,0.2 1415.21,1 1498.35,1.29l0.76 0c0.36,0 0.71,0 1.07,0l0.3 0c0.29,0.01 0.59,0.01 0.88,0.01 1.75,0.01 3.43,0.01 5.04,0.02 0.28,0 0.55,0 0.83,0.01 4.38,0.01 8.25,0.03 11.53,0.04l0.83 0c0.56,0 1.11,0 1.64,0 6.25,0.02 9.8,0.04 10.06,0.04 1.82,-0.01 3.57,-0.01 5.39,-0.07 2.8,-0.09 5.62,-0.09 8.43,-0.03 -0.34,6.48 -0.89,13.87 -0.6,15.25 -0.12,-0.02 -0.23,-0.09 -0.33,-0.2 -0.04,0.09 -0.09,0.17 -0.17,0.23 -0.33,0.3 -0.69,0.46 -1.1,0.53 -0.29,0.51 -0.84,0.95 -1.82,1.32 -2.5,0.95 -3.61,-2.14 -2.25,0.93 0.44,1 -1.75,2.65 -2.44,2.67 -1.84,0.1 -1.69,-1.42 -2.04,-3.11 -0.06,-0.28 -0.09,-0.45 -0.11,-0.52 0.03,0.42 0.67,5.01 -0.48,6.45 -2.39,2.97 -6.48,3.96 -9.23,0.74z"/>
    <path class="fil13" d="M1866.69 1773.27c-3.29,-3.84 -2.9,-9.92 -2.6,-14.57 0.6,-9.28 -0.42,-20.74 4.14,-28.91 1.95,-3.5 6.93,-6.81 9.86,-1.74 2.1,3.64 -0.69,11.23 -1.25,15.35 -0.81,5.82 -0.99,11.19 -0.95,17.08 0.01,1.73 0.05,3.23 0.22,4.76 0.26,2.25 1.98,5.35 0.45,7.25 -2.55,3.17 -6.92,4.24 -9.87,0.79z"/>
    <path class="fil13" d="M1879.38 1769.48c-1.97,0.1 -1.81,-1.52 -2.18,-3.33 -0.54,-2.66 -0.65,-5.28 -0.63,-7.96 0.1,-8.61 0.84,-17.22 2.78,-25.64 1.08,-4.7 3.28,-0.07 3.04,2.43 -0.26,2.76 -0.68,5.9 -0.92,8.85 -0.27,3.35 -0.55,7.12 -0.66,10.22 -0.12,3.54 -0.28,9.26 1.17,12.55 0.47,1.07 -1.87,2.83 -2.61,2.87z"/>
    <path class="fil13" d="M1853.94 1769.06c-2.56,-1.5 -2.3,-2.66 -2.64,-4.84 -0.05,-0.29 -0.1,-0.59 -0.16,-0.85 -0.42,-1.91 -1.12,-3.25 -1.28,-5.68 -0.23,-3.44 -0.47,-7.21 -0.29,-10.95 0.16,-3.33 0.65,-6.62 1.75,-9.62 0.53,-1.43 1.19,-2.79 2.03,-4.06 1.98,-2.99 5.88,-5.14 8.59,-2.02 0.01,0.01 0.02,0.02 0.02,0.02 0.13,0.16 0.26,0.32 0.39,0.51 1.87,2.68 -0.14,5.62 -0.59,8.9 -0.28,2.06 -0.51,4.17 -0.68,6.31 -0.2,2.51 -0.31,5.04 -0.32,7.5 0,2.47 -0.18,5 0.15,7.45 0.22,1.64 0.63,2.91 0.57,4.08 -0.05,1.09 -0.49,2.08 -1.83,3.22 -1.62,1.36 -3.99,1.03 -5.72,0.02z"/>
    <path class="fil14" d="M1862.3 1764.28c-1.2,-2.51 -0.65,-14.13 -0.55,-15.35 0.06,-0.72 0.12,-1.43 0.17,-2.15 0.21,-2.7 0.45,-5.42 0.95,-8.05 0.15,-0.8 0.5,-3.89 1.13,-4.12 0.34,-0.12 1.24,-0.56 1.02,0.32 -0.96,3.74 -1.29,7.86 -1.45,11.86 -0.05,1.29 -0.09,2.57 -0.12,3.82 -0.03,1.04 -0.02,8.99 -0.25,12.5 -0.06,0.98 -0.15,1.61 -0.26,1.65 -0.25,0.07 -0.45,-0.11 -0.62,-0.47z"/>
    <path class="fil14" d="M1842.75 1761.47c-0.32,-0.38 -0.62,-0.91 -0.88,-1.56 -1.18,-3 -1.63,-8.56 -1.18,-13.2 0.26,-2.63 0.82,-4.96 1.7,-6.36 0.52,-0.84 1.16,-1.34 1.93,-1.38 -1.03,0.89 -1.4,2.96 -1.49,5.25 -0.03,0.82 -0.03,1.67 -0.01,2.5 0.05,2.18 0.23,4.28 0.23,5.57 0.01,1.14 -0.11,2.29 -0.05,3.43 0.01,0.19 0.11,0.73 0.22,1.42 0.38,2.22 0.97,5.98 -0.47,4.34z"/>
    <path class="fil14" d="M1849.22 1763.82c-2.17,-0.39 -3.46,-1.65 -4.23,-3.3 -1.18,-2.5 -1.15,-5.91 -1.18,-8.56 -0.02,-1.44 -0.14,-3.32 -0.11,-5.25 0.04,-2.91 0.4,-5.93 1.93,-7.73 0.06,-0.08 0.13,-0.16 0.2,-0.23 0.61,-0.64 3.11,-2.22 3.83,-1.92 0.21,0.09 0.36,0.15 0.45,0.22 0.36,0.22 -0.06,0.32 0.02,1.36 0.19,2.52 -1.01,5.63 -1.39,8.33 -0.05,0.31 -0.08,0.62 -0.1,0.92 -0.12,1.94 -0.52,10.18 -0.03,14.12 0.13,1.07 0.33,1.82 0.61,2.04z"/>
    <path class="fil14" d="M1881.65 1752.71c0.12,-3.59 0.35,-7.16 0.75,-10.72 0.23,-1.94 -0.01,-6.22 1.2,-7.79 1,-1.3 1.57,-1.49 2.92,0 0.15,0.17 0.27,0.33 0.37,0.51 1,0.32 1.39,0.91 1.5,1.63 0.04,-0.09 0.09,-0.14 0.12,-0.13 1.41,0.28 -1.04,24.67 -0.47,27.39 -0.13,-0.02 -0.24,-0.09 -0.35,-0.21 -0.04,0.09 -0.1,0.18 -0.18,0.25 -0.35,0.32 -0.75,0.49 -1.18,0.57 -0.31,0.55 -0.89,1.02 -1.95,1.42 -2.67,1 -2.81,-10.92 -2.75,-12.91z"/>
    <path class="fil15" d="M1908.47 1736.55c-13.7,-27.52 23.95,-56.43 45.56,-64.65 14.29,-5.44 28.83,-5.84 44.01,-4.16 27.92,3.08 51.45,13.83 73.32,31.23 17.45,13.88 38.68,38.24 61.81,40.76 -17.29,-2.36 -34.07,-5.31 -48.31,-16.23 -20.79,-15.95 -39.16,-33.34 -64.2,-43.2 -31.41,-12.36 -79.8,-8.49 -97.87,23.11 -5.37,9.39 -13.35,24.47 -14.32,33.13z"/>
    <path class="fil15" d="M1998.03 1833.03c27.92,-3.08 51.45,-13.83 73.32,-31.23 17.45,-13.88 38.68,-38.24 61.81,-40.76 -17.29,2.36 -34.07,5.31 -48.31,16.22 -20.79,15.95 -39.16,33.35 -64.2,43.2 -31.41,12.36 -79.8,8.49 -97.87,-23.11 -5.37,-9.39 -13.35,-24.48 -14.32,-33.12 -9.27,18.61 8.24,39.73 21.82,50.72 19.36,15.66 43.27,20.8 67.74,18.09z"/>
    <path class="fil16" d="M1904.41 1724.33c0,-13.56 9.62,-25.53 17.69,-33.17 9.04,-8.57 21.11,-16.35 31.52,-20.31 12.89,-4.91 26.62,-6.21 44.53,-4.23 26.83,2.97 51.01,13.26 73.9,31.47 4.08,3.24 8.31,7.01 12.79,11 13.93,12.4 29.72,26.45 46.35,29.23 0.71,0.1 1.41,0.2 2.12,0.29 0.56,0.08 0.97,0.56 0.97,1.12 0,0.05 0,0.09 -0.01,0.14 -0.07,0.61 -0.63,1.05 -1.24,0.98 -0.72,-0.08 -1.46,-0.18 -2.19,-0.3 -15.86,-2.22 -32.54,-5.31 -46.67,-16.15 -4.33,-3.32 -8.62,-6.75 -12.75,-10.07 -16.2,-12.97 -31.5,-25.23 -51.18,-32.97 -15.93,-6.27 -35.86,-8.09 -53.32,-4.87 -19.78,3.65 -35.11,13.42 -43.16,27.5 -5.97,10.43 -13.27,24.57 -14.18,32.7 -0.06,0.5 -0.43,0.89 -0.92,0.98 -0.49,0.09 -0.98,-0.16 -1.21,-0.61 -2.02,-4.06 -3.05,-8.34 -3.05,-12.72z"/>
    <path class="fil16" d="M1904.74 1775.29c0,-4.06 0.91,-7.96 2.71,-11.57 0.22,-0.45 0.71,-0.7 1.2,-0.61 0.49,0.08 0.87,0.48 0.92,0.98 0.92,8.12 8.22,22.27 14.19,32.7 8.05,14.08 23.38,23.84 43.16,27.49 17.46,3.22 37.39,1.4 53.32,-4.87 19.67,-7.74 34.98,-20 51.18,-32.97 4.14,-3.32 8.42,-6.75 12.75,-10.07 14.14,-10.84 30.81,-13.92 46.67,-16.15 0.73,-0.12 1.47,-0.22 2.19,-0.3 0.62,-0.06 1.17,0.37 1.24,0.98 0.01,0.05 0.01,0.09 0.01,0.14 0,0.56 -0.41,1.04 -0.97,1.12 -0.71,0.1 -1.42,0.19 -2.12,0.29 -16.63,2.78 -32.42,16.83 -46.35,29.23 -4.48,3.99 -8.71,7.76 -12.79,11 -22.89,18.21 -47.07,28.5 -73.9,31.47 -26.43,2.92 -50.14,-3.42 -68.58,-18.33 -6.42,-5.19 -12.28,-11.45 -16.53,-17.61 -5.51,-8.01 -8.3,-15.71 -8.3,-22.91 0,0 0,0 0,-0z"/>
    <path class="fil15" d="M1998.03 1833.03c27.92,-3.08 51.45,-13.83 73.32,-31.23 17.45,-13.88 38.68,-38.24 61.81,-40.76 -17.29,2.36 -34.07,5.31 -48.31,16.22 -20.79,15.95 -39.16,33.35 -64.2,43.2 -31.41,12.36 -79.8,8.49 -97.87,-23.11 -5.37,-9.39 -13.35,-24.48 -14.32,-33.12 -9.27,18.61 8.24,39.73 21.82,50.72 19.36,15.66 43.27,20.8 67.74,18.09z"/>
    <path class="fil17" d="M2064.62 1796.99c-14.02,10.4 -28.55,20.51 -45.12,26.43 -16.88,6.02 -34.91,6.4 -52.41,3.08 -17.03,-3.23 -33.01,-10.3 -44.1,-23.95 -4.7,-5.79 -9.29,-12.37 -12.92,-19.42 1.71,8.06 5,15.68 10.49,21.85 20.19,22.68 52.41,31.1 81.68,26.18 29.78,-5 57.14,-21.09 78.51,-42.06 0.23,-0.22 0.46,-0.39 0.7,-0.54 4.94,-4.56 10.04,-9.42 15.44,-13.85 -11.15,6.79 -21.77,14.49 -32.27,22.28z"/>
    <g>
     <path class="fil15" d="M1908.47 1736.55c-13.7,-27.52 23.95,-56.43 45.56,-64.65 14.29,-5.44 28.83,-5.84 44.01,-4.16 27.92,3.08 51.45,13.83 73.32,31.23 17.45,13.88 38.68,38.24 61.81,40.76 -17.29,-2.36 -34.07,-5.31 -48.31,-16.23 -20.79,-15.95 -39.16,-33.34 -64.2,-43.2 -31.41,-12.36 -79.8,-8.49 -97.87,23.11 -5.37,9.39 -13.35,24.47 -14.32,33.13z"/>
     <path class="fil17" d="M2040.33 1686.95c11.21,7.19 21.91,16.47 32.81,24.62 5.78,4.32 11.73,8.45 18.07,11.91 5.5,3 12.43,4.61 17.37,8.48 -13.9,-10.88 -28.5,-20.42 -42.63,-31.05 -13.1,-9.86 -26.63,-19.33 -42.39,-24.41 -26.71,-8.61 -59.34,-10.27 -83.76,4.47 -0.31,0.19 -0.61,0.29 -0.91,0.32 -4.71,3.42 -9.01,7.4 -13.04,11.57 -4.17,4.32 -8.13,8.68 -11.23,13.85 -3.12,5.19 -6.44,12.29 -6.89,19 2.91,-15.16 13.75,-29.14 25.62,-38.15 8.04,-6.11 17.68,-10.58 27.52,-12.86 9.54,-2.21 19.15,-2.16 28.84,-1.22 17.37,1.69 35.65,3.85 50.63,13.46z"/>
    </g>
    <g>
     <line class="fil18" x1="1943.86" y1="1750.36" x2="1946.1" y2= "1750.36" />
    </g>
    <g>
     <g>
      <path class="fil19" d="M2029.2 1805.57l0 -110.44c0,-4.71 3.82,-8.53 8.53,-8.53 4.71,0 8.53,3.82 8.53,8.53l0 110.44c0,4.71 -3.82,8.53 -8.53,8.53 -4.71,0 -8.53,-3.82 -8.53,-8.53z"/>
      <path class="fil19" d="M2002.44 1805.57l0 -110.44c0,-4.71 3.82,-8.53 8.53,-8.53 4.71,0 8.53,3.82 8.53,8.53l0 110.44c0,4.71 -3.82,8.53 -8.53,8.53 -4.71,0 -8.53,-3.82 -8.53,-8.53z"/>
      <path class="fil19" d="M1975.67 1805.57l0 -110.44c0,-4.71 3.82,-8.53 8.53,-8.53l0 0c4.7,0 8.52,3.82 8.52,8.53l0 110.44c0,4.71 -3.82,8.53 -8.52,8.53 -4.71,0 -8.53,-3.82 -8.53,-8.53z"/>
     </g>
    </g>
    <g>
     <g>
      <path class="fil20" d="M2032.73 1805.01l0 -110.44c0,-4.71 3.82,-8.53 8.52,-8.53 4.71,0 8.53,3.82 8.53,8.53l0 110.44c0,4.71 -3.82,8.52 -8.53,8.52 -4.7,0 -8.52,-3.82 -8.52,-8.52z"/>
      <path class="fil20" d="M2005.96 1805.01l0 -110.44c0,-4.71 3.82,-8.53 8.53,-8.53 4.71,0 8.53,3.82 8.53,8.53l0 110.44c0,4.71 -3.82,8.52 -8.53,8.52 -4.71,0 -8.53,-3.82 -8.53,-8.52z"/>
      <path class="fil20" d="M1979.19 1805.01l0 -110.44c0,-4.71 3.82,-8.53 8.53,-8.53 4.71,0 8.53,3.82 8.53,8.53l0 110.44c0,4.71 -3.82,8.52 -8.53,8.52 -4.71,0 -8.53,-3.82 -8.53,-8.52z"/>
     </g>
    </g>
    <path class="fil21" d="M2006.93 1694.96c0.63,16.74 1.1,33.28 0.56,50.02 -0.45,-16.95 -1.67,-33.91 -0.81,-50.86l0.25 0.85z"/>
    <g>
     <path class="fil22" d="M1934.02 1755.93c-1.01,-1.85 -1.88,-4.01 -2.58,-6.35 -0.93,-3.09 -1.57,-6.5 -1.84,-9.94 -0.66,-8.35 0.81,-16.94 5.47,-21.9 7.75,-8.23 28.66,-3.91 27.49,-19.63 0.01,-0.02 0,-0.04 0,-0.06 -0,-0.06 -0,-0.12 -0.02,-0.18l0 -0.04c-10.73,3.06 -16.79,-10 -5.39,-13.81 0.03,-0.01 0.06,-0.02 0.09,-0.02 13.17,-4.32 18.5,19.44 12.77,27.82 -6.33,9.26 -17.46,5.16 -25.38,10.19 -8.08,5.14 -10.68,17.36 -10.84,27.48l0 0.16c-0.03,2.23 0.06,4.35 0.24,6.27z"/>
     <path class="fil22" d="M1957.23 1815.16c-0.03,-0.01 -0.06,-0.02 -0.09,-0.03 -11.41,-3.81 -5.34,-16.87 5.39,-13.81 0.02,-0.29 0.05,-0.58 0.05,-0.86 0.62,-15.04 -19.87,-10.92 -27.52,-19.06 -4.28,-4.55 -5.88,-12.19 -5.59,-19.87 0.15,-4.12 0.85,-8.27 1.96,-11.96l0 -0.01c0.71,-2.34 1.58,-4.5 2.58,-6.35 -0.17,1.92 -0.26,4.04 -0.24,6.27l0 0.16c0.16,10.12 2.76,22.34 10.84,27.48 7.92,5.04 19.05,0.93 25.38,10.2 5.73,8.38 0.4,32.13 -12.77,27.82z"/>
    </g>
    <path class="fil23" d="M1912.62 1802.33c2.61,-1.1 1.35,-8.46 -0.01,-9.96 -1.06,-1.17 -4.5,-1.77 -3.33,-3.24 1.64,-2.07 3.73,0.88 1.37,-2.44 1.26,-1.9 4.29,-0.56 1.53,-3.1 -1.11,-1.03 -4.71,-1.02 -2.42,-2.81 0.78,-0.61 2.56,0.6 3.21,-0.31 0.85,-1.2 -1.31,-2.94 -2.52,-3.04 -0.08,-0.58 1.63,-1.67 1.95,-2.51 0.7,-1.89 -0.29,-3.65 -1.45,-5.08 -1.21,-1.47 -3.91,-3.28 -1.44,-5.27 1.41,-1.13 3.1,-0.34 3.92,1.06 0.71,1.2 -0.26,2.87 0.2,3.72 0.67,1.21 0.38,0.34 1.57,0.98 0.97,0.52 0.96,0.19 1.85,0.85 0.45,0.33 0.38,1.3 1.1,1.74 1.66,1.04 3.79,0.07 4,-2.06 0.05,-0.49 -1.9,-3.33 -0.4,-3.36 1.32,-0.03 3.2,4.08 4.22,-0.01 0.81,-3.26 -1.78,-1.42 -3.05,-2.91 -0.86,-1.02 -0.26,-2.87 0.75,-3.25 1.59,-0.61 2.29,1.33 3.42,1.85 1.5,0.68 4.39,1.11 4.63,-1.47 0.07,-0.7 -1.72,-2.38 -1.34,-2.76 0.91,-0.93 3.02,1.76 3.94,1.12 1.96,-1.38 -1.02,-2.39 -1.68,-3.29 1.83,-1.58 4.23,1.32 6.7,-1.16 0.16,-0.17 3.4,-4.09 3.4,-4.12 0.02,-0.22 -0.16,-0.54 -0.43,-0.9 -1.27,0.48 -2.56,0.87 -3.9,1.18 -2.71,0.93 -5.58,1.48 -8.55,1.62 -6.94,0.31 -14.86,-3.33 -19.7,-8.16 -5.05,-5.05 -8.16,-12.56 -8.16,-19.7 0,-5.28 1.46,-10.1 3.98,-14.19 0.01,-0.82 0.05,-1.62 0.12,-2.42 -3,3.55 -6.61,6.71 -8.13,11.21 -0.65,1.9 -0.85,3.97 -1.15,5.93 -0.3,1.97 0.23,4.01 0.01,6.01 -0.1,0.9 -0.92,1.55 -1.06,2.45 -0.13,0.86 0.3,2.02 0.4,2.97 0.11,1.06 -0.11,1.53 0.2,2.67 0.57,2.18 8.98,9.54 9.26,9.08 -0.01,0.02 -0.03,0.04 -0.04,0.06l5.15 1.6 -0.12 0.39c0.75,1.41 -2.27,1.47 -3.03,1.67 -2.84,0.79 -5.56,2.67 -7.65,4.76 -4.58,4.58 -3.18,9.07 -3.65,14.39 -0.23,2.49 -0.14,4.9 0.33,7.23 0.34,0.7 0.64,1.41 0.92,2.13 1.87,2.14 3.42,4.63 4.58,7.3 0.83,0.87 1.66,1.74 2.44,2.66 2.98,3.47 5.15,6.59 7.13,10.35 0.3,0.19 0.61,0.39 0.91,0.59z"/>
    <path class="fil24" d="M1912.59 1801.32c-1.16,-0.08 -3.35,-6.49 -4.58,-7.89 -2.25,-2.55 -4.99,-4.54 -6.92,-7.38 -3.22,-4.71 -4.16,-9.7 -3.67,-15.09 0.47,-5.31 -0.93,-9.82 3.65,-14.39 0.13,-0.13 0.26,-0.26 0.4,-0.39 0.13,-0.13 0.27,-0.26 0.42,-0.38 0.14,-0.13 0.28,-0.26 0.43,-0.38 0.02,-0.02 0.04,-0.03 0.06,-0.05 0.27,-0.23 0.55,-0.45 0.83,-0.68 1.67,-1.28 3.57,-2.35 5.52,-2.88 0.65,-0.18 2.98,-0.25 3.15,-1.16 0.02,-0.14 -0.01,-0.32 -0.11,-0.51l0.12 -0.4 -5.15 -1.59c0.02,-0.02 0.03,-0.04 0.04,-0.06 -0.28,0.47 -8.69,-6.9 -9.26,-9.08 -0.3,-1.14 -0.09,-1.61 -0.2,-2.67 -0.1,-0.96 -0.54,-2.11 -0.4,-2.97 0.14,-0.9 0.97,-1.55 1.06,-2.45 0.22,-2 -0.31,-4.04 -0.01,-6.02 0.29,-1.95 0.5,-4.02 1.14,-5.92 1.81,-5.35 6.58,-8.81 9.75,-13.27 1.83,-2.58 2.46,-10.9 6.47,-5.98 1.96,2.4 1.31,5.45 -0.27,7.74 -0.53,0.77 -2.73,2.48 -2.83,3.1 -0.21,1.34 1.01,0.95 1.11,1.83 0.11,0.98 -0.99,1.69 -0.97,2.24 0.05,1.33 1.42,0.81 1.46,1.3 0.22,2.71 -0.57,1.16 -1.82,2.32 -0.33,0.31 -2.21,-0.14 -1.6,1.84 0.45,1.45 2.91,0.85 4.26,0.56 0.16,1.53 -1.21,1.41 -1.16,2.75 0.03,0.72 0.38,0.88 0.5,1.45 0.45,2.28 0.99,2.88 -0.75,5.28 -0.97,1.32 -5.85,6.31 -1.67,7.39 2.41,0.63 2.29,-4.45 2.86,-5.53 0.36,-0.67 -0.02,-0.96 1.05,-1.36 1.07,-0.41 1.57,0.7 2.26,0.57 1.71,-0.32 0.31,-1.96 2.73,-2.64 2.71,-0.75 2.41,1.85 3.6,2.7 1.34,0.95 2.09,-0.52 3.61,0.18 1.73,0.81 1.46,2.97 0.41,3.95 -0.69,0.65 -1.88,0.16 -2.73,0.96 -2.83,2.63 -0.07,3.34 1.96,2.31 1.83,-0.93 2.89,-2 4.6,0.03 0.37,0.44 0.95,2.75 1,2.78 1.18,0.76 1.88,-2.54 3.35,0.07 0.47,0.82 -0.4,1.99 -1.07,2.68 0.82,0.79 1.81,-0.03 2.81,0.39 1.19,0.49 2.26,1.56 3.15,2.44 0.49,0.48 1.7,1.59 2.32,2.45 0,0.01 0.01,0.01 0.01,0.01 0.06,0.07 0.1,0.15 0.15,0.22 0.02,0.03 0.04,0.07 0.06,0.11 0.11,0.19 0.17,0.36 0.16,0.49 -0,0.03 -3.23,3.96 -3.4,4.12 -2.47,2.48 -4.87,-0.42 -6.7,1.16 0.66,0.9 3.64,1.91 1.68,3.29 -0.92,0.64 -3.03,-2.05 -3.94,-1.12 -0.38,0.39 1.41,2.06 1.35,2.76 -0.24,2.58 -3.14,2.15 -4.63,1.47 -1.13,-0.51 -1.83,-2.45 -3.42,-1.84 -1.01,0.38 -1.61,2.24 -0.75,3.25 1.28,1.49 3.86,-0.35 3.05,2.91 -1.02,4.09 -2.9,-0.02 -4.22,0.01 -1.5,0.04 0.45,2.87 0.4,3.36 -0.21,2.13 -2.34,3.1 -4,2.06 -0.72,-0.45 -0.65,-1.42 -1.1,-1.74 -0.89,-0.65 -0.88,-0.33 -1.85,-0.85 -1.19,-0.63 -0.91,0.24 -1.57,-0.98 -0.46,-0.85 0.51,-2.51 -0.2,-3.72 -0.83,-1.4 -2.51,-2.19 -3.93,-1.06 -2.48,1.99 0.23,3.8 1.44,5.27 1.17,1.42 2.15,3.18 1.44,5.07 -0.31,0.84 -2.02,1.92 -1.94,2.5 1.21,0.1 3.38,1.84 2.52,3.04 -0.65,0.91 -2.43,-0.29 -3.21,0.31 -2.29,1.8 1.31,1.78 2.43,2.82 2.74,2.54 -0.28,1.19 -1.54,3.1 2.35,3.31 0.27,0.37 -1.38,2.44 -1.17,1.47 2.27,2.07 3.33,3.24 1.53,1.68 2.93,10.78 -1.14,10.07z"/>
    <path class="fil11" d="M1912.59 1801.32c-1.16,-0.08 -3.35,-6.49 -4.58,-7.89 -2.25,-2.55 -4.99,-4.54 -6.92,-7.38 -3.22,-4.71 -4.16,-9.7 -3.67,-15.09 0.47,-5.31 -0.93,-9.82 3.65,-14.39 0.13,-0.13 0.26,-0.26 0.4,-0.39 0.13,-0.13 0.27,-0.26 0.42,-0.38 0.14,-0.13 0.28,-0.26 0.43,-0.38 0.02,-0.02 0.04,-0.03 0.06,-0.05 0.27,-0.23 0.55,-0.45 0.83,-0.68 1.67,-1.28 3.57,-2.35 5.52,-2.88 0.65,-0.18 2.98,-0.25 3.15,-1.16 1.32,-0.22 2.64,-0.25 3.95,-0.03 2.63,0.43 5.15,1.42 7.77,1.93 3.74,0.73 6.92,0.08 10.57,-0.57 0.66,-0.12 9.58,-1.9 9.33,-2.44 0.06,0.07 0.1,0.15 0.15,0.22 0.02,0.03 0.04,0.07 0.06,0.11 0.11,0.19 0.17,0.36 0.16,0.49 -0,0.03 -3.23,3.96 -3.4,4.12 -2.47,2.48 -4.87,-0.42 -6.7,1.16 0.66,0.9 3.64,1.91 1.68,3.29 -0.92,0.64 -3.03,-2.05 -3.94,-1.12 -0.38,0.39 1.41,2.06 1.35,2.76 -0.24,2.58 -3.14,2.15 -4.63,1.47 -1.13,-0.51 -1.83,-2.45 -3.42,-1.84 -1.01,0.38 -1.61,2.24 -0.75,3.25 1.28,1.49 3.86,-0.35 3.05,2.91 -1.02,4.09 -2.9,-0.02 -4.22,0.01 -1.5,0.04 0.45,2.87 0.4,3.36 -0.21,2.13 -2.34,3.1 -4,2.06 -0.72,-0.45 -0.65,-1.42 -1.1,-1.74 -0.89,-0.65 -0.88,-0.33 -1.85,-0.85 -1.19,-0.63 -0.91,0.24 -1.57,-0.98 -0.46,-0.85 0.51,-2.51 -0.2,-3.72 -0.83,-1.4 -2.51,-2.19 -3.93,-1.06 -2.48,1.99 0.23,3.8 1.44,5.27 1.17,1.42 2.15,3.18 1.44,5.07 -0.31,0.84 -2.02,1.92 -1.94,2.5 1.21,0.1 3.38,1.84 2.52,3.04 -0.65,0.91 -2.43,-0.29 -3.21,0.31 -2.29,1.8 1.31,1.78 2.43,2.82 2.74,2.54 -0.28,1.19 -1.54,3.1 2.35,3.31 0.27,0.37 -1.38,2.44 -1.17,1.47 2.27,2.07 3.33,3.24 1.53,1.68 2.93,10.78 -1.14,10.07z"/>
    <path class="fil10" d="M1910.23 1706.7c-0.86,1.2 -1.81,2.33 -2.79,3.42 0.1,0.47 0.18,0.94 0.25,1.41 0.7,-0.77 1.4,-1.56 2.07,-2.38 -0.16,0.31 -0.27,0.64 -0.33,1 -0.04,0.25 -0.06,0.49 -0.06,0.73 0,0.78 0.21,1.48 0.62,2.08 -0.25,0.44 -0.46,1.01 -0.46,1.69l0.01 0.1c0.01,0.36 0.07,0.81 0.22,1.25 -0.82,0.35 -1.43,0.89 -1.83,1.57 -0.08,0.92 -0.21,1.8 -0.41,2.65 0.04,0.24 0.09,0.48 0.17,0.74 0.44,1.43 1.48,2.37 2.99,2.74 0.07,0.97 0.4,1.6 0.58,1.93 0.06,0.29 0.12,0.56 0.18,0.82 0.09,0.39 0.18,0.78 0.18,0.94 0,0 -0.02,0.25 -0.67,1.15 -0.09,0.13 -0.24,0.3 -0.41,0.51l-0.07 0.08c-1.71,2.09 -3.39,4.34 -3.39,6.7 0,0.82 0.28,3.57 3.77,4.48 1.17,0.31 2.31,0.13 3.28,-0.5 1.93,-1.25 2.36,-3.8 2.67,-5.65 0.01,-0.04 0.02,-0.1 0.03,-0.17 0.42,0.1 0.9,0.13 1.42,0.03 1.58,-0.3 2.38,-1.19 2.81,-1.96 0.3,0.53 0.72,1.08 1.36,1.54 0.39,0.28 0.78,0.47 1.15,0.6 -0.05,0.04 -0.1,0.09 -0.15,0.13 -1.42,1.32 -2.11,2.61 -2.11,3.94 0,1.27 0.63,2.38 1.72,3.06 1.76,1.08 4.08,0.62 5.53,-0.11 0.3,-0.15 0.57,-0.3 0.83,-0.45 0.07,-0.03 0.17,-0.09 0.28,-0.15 0.08,0.23 0.19,0.6 0.36,1.16 0.22,0.77 0.46,1.57 1.41,2.14 0.3,0.19 0.61,0.33 0.92,0.42 0.02,0.73 0.34,1.45 0.88,1.96 1.42,1.35 3.08,1.15 3.8,1.06 0.03,-0.01 0.06,-0.01 0.09,-0.01 0.55,0.3 1.23,0.94 1.78,1.48 0.68,0.12 1.35,0.25 2.02,0.4 -0.2,-0.2 -0.4,-0.4 -0.64,-0.63 -0.13,-0.12 -0.38,-0.37 -0.38,-0.37 -0.76,-0.75 -1.7,-1.68 -2.54,-2.02 -0.07,-0.01 -0.31,0.02 -0.47,0.03 -0.64,0.08 -1.84,0.23 -2.88,-0.75 -0.32,-0.31 -0.51,-0.74 -0.52,-1.19l0 -0.04c0,-0.36 0.12,-0.72 0.34,-1.01 -0.53,0.14 -1.15,0.13 -1.8,-0.29 -0.58,-0.35 -0.72,-0.81 -0.92,-1.5 -0.11,-0.35 -0.41,-1.37 -0.58,-1.71 -0.37,-0.42 -0.56,-0.48 -0.56,-0.49 -0.17,-0.01 -0.75,0.32 -1.14,0.52 -0.25,0.14 -0.51,0.29 -0.8,0.43 -1.28,0.65 -3.15,0.95 -4.42,0.16 -0.76,-0.47 -1.19,-1.23 -1.19,-2.1 0,-1 0.57,-2.02 1.75,-3.12 0.85,-0.79 1.82,-0.9 2.45,-0.98 0.11,-0.01 0.25,-0.03 0.35,-0.04 0.12,-0.16 0.23,-0.42 0.23,-0.67 0,-0.26 -0.09,-0.36 -0.27,-0.45 -0.12,-0.06 -0.15,-0.07 -0.62,0.07 -0.66,0.2 -1.89,0.56 -3.26,-0.4 -0.76,-0.54 -1.12,-1.3 -1.41,-1.9 -0.09,-0.21 -0.23,-0.5 -0.32,-0.62 -0.07,0 -0.21,0.01 -0.43,0.07 -0.29,0.08 -0.4,0.16 -0.41,0.16 -0.02,0.04 -0.06,0.17 -0.09,0.28 -0.17,0.57 -0.57,1.9 -2.36,2.24 -0.88,0.17 -1.56,-0.21 -1.96,-0.46 -0.05,0.11 -0.1,0.23 -0.16,0.36 -0.06,0.19 -0.16,0.75 -0.23,1.16 -0.29,1.74 -0.67,3.91 -2.18,4.89 -0.71,0.45 -1.52,0.57 -2.39,0.35 -2.64,-0.69 -2.93,-2.59 -2.93,-3.39 0,-1.99 1.55,-4.05 3.14,-5.98 0.22,-0.27 0.4,-0.49 0.52,-0.65 0.77,-1.06 0.88,-1.49 0.88,-1.8 0,-0.29 -0.09,-0.69 -0.21,-1.19 -0.07,-0.29 -0.14,-0.62 -0.2,-0.95 -0.02,-0.04 -0.05,-0.08 -0.07,-0.12 -0.16,-0.31 -0.44,-0.81 -0.47,-1.62l0 -0.13c0,-0.23 0.02,-0.45 0.06,-0.64 -1.32,-0.06 -2.6,-0.55 -3.08,-2.1 -0.13,-0.43 -0.2,-0.82 -0.2,-1.18 0,-0.84 0.34,-2.31 2.59,-2.67 0.09,-0.07 0.19,-0.13 0.27,-0.19 -0.61,-0.59 -0.76,-1.35 -0.78,-1.87 -0.01,-0.02 -0.01,-0.05 -0.01,-0.07 0,-0.77 0.42,-1.34 0.72,-1.76 0.01,-0.01 0.02,-0.02 0.03,-0.04 -0.43,-0.36 -0.91,-0.97 -0.91,-1.97 0,-0.17 0.02,-0.36 0.04,-0.55 0.14,-0.89 0.81,-1.55 2.08,-2.75 0.36,-0.35 0.9,-0.86 1.04,-1.04 0.77,-1.11 1.19,-2.31 1.19,-3.39 0,-0.87 -0.28,-1.66 -0.84,-2.34 -0.39,-0.49 -0.67,-0.72 -0.83,-0.82 -0.45,0.54 -1.03,2.19 -1.35,3.12 -0.49,1.37 -0.94,2.66 -1.6,3.6z"/>
    <path class="fil10" d="M1911.64 1793.15c-0.15,-0.09 -0.45,-0.25 -0.68,-0.37 0.39,0.67 0.81,1.53 1.31,2.61 -0.19,-1.09 -0.48,-1.95 -0.63,-2.24zm0.22 -86.4l0 0c0.21,-0.2 0.78,-0.74 0.88,-0.86 0.64,-0.92 0.99,-1.9 0.99,-2.74 0,-0.43 -0.1,-0.82 -0.28,-1.17 -0.23,0.58 -0.45,1.2 -0.55,1.51 -0.51,1.44 -0.99,2.81 -1.74,3.87 -0.06,0.09 -0.13,0.18 -0.19,0.26 0.28,-0.27 0.58,-0.56 0.9,-0.87z"/>
    <path class="fil23" d="M1959.21 1760.63c-6.29,0 -11.39,-3.86 -11.39,-8.62 0,-4.76 5.1,-8.62 11.39,-8.62 6.29,0 11.38,3.86 11.38,8.62 0,4.76 -5.1,8.62 -11.38,8.62z"/>
    <path class="fil22" d="M1959.77 1759.5c-6.29,0 -11.39,-3.86 -11.39,-8.62 0,-4.76 5.1,-8.62 11.39,-8.62 6.29,0 11.38,3.86 11.38,8.62 0,4.76 -5.09,8.62 -11.38,8.62z"/>
    <path class="fil10" d="M1966.87 1754.45c-0.66,-2.18 -1.48,-4.32 -2.81,-6.18 -0.53,-0.74 -3.56,-4.36 -4.36,-4.09 3.43,-1.14 6.69,1.25 8.5,4 0.72,1.1 1.42,2.62 1.08,3.96 -0.1,0.42 -2.22,2.92 -2.4,2.31z"/>
    <path class="fil25" d="M2035.9 1691.49c1.79,-3.15 5.76,-3.87 8.66,-1.59 2.88,2.25 3.57,6.84 1.47,9.83 -1.1,-4.91 -6.26,-6.99 -10.79,-6.64 0.16,-0.59 0.38,-1.12 0.66,-1.6z"/>
    <path class="fil25" d="M2009.14 1691.49c1.79,-3.15 5.76,-3.87 8.66,-1.59 2.88,2.25 3.57,6.84 1.47,9.83 -1.1,-4.91 -6.26,-6.99 -10.79,-6.64 0.16,-0.59 0.38,-1.12 0.65,-1.6z"/>
    <path class="fil25" d="M1982.37 1691.49c1.8,-3.15 5.76,-3.87 8.67,-1.59 2.88,2.25 3.57,6.84 1.47,9.83 -1.1,-4.91 -6.27,-6.99 -10.79,-6.64 0.16,-0.59 0.38,-1.12 0.65,-1.6z"/>
    <path class="fil21" d="M2041.67 1808.55c-1.48,-0.26 -2.64,-1.5 -3.23,-2.88 -0.59,-1.39 -0.7,-2.92 -0.81,-4.42 -0.57,-8.17 -1.14,-16.34 -1.7,-24.51 -0.98,8.15 -1.44,16.36 -1.4,24.56 0.02,3.48 0.51,7.61 3.57,9.27 1.52,0.83 3.48,0.79 4.97,-0.11 1.06,-0.63 1.92,-1.71 2.18,-2.91 -1.23,-0.05 -2.11,1.26 -3.58,1z"/>
    <path class="fil21" d="M2014.77 1808.55c-1.48,-0.26 -2.65,-1.5 -3.23,-2.88 -0.59,-1.39 -0.7,-2.92 -0.8,-4.42 -0.57,-8.17 -1.14,-16.34 -1.71,-24.51 -0.98,8.15 -1.44,16.36 -1.39,24.56 0.02,3.48 0.5,7.61 3.57,9.27 1.52,0.83 3.48,0.79 4.97,-0.11 1.06,-0.63 1.92,-1.71 2.18,-2.91 -1.24,-0.05 -2.11,1.26 -3.58,1z"/>
    <path class="fil21" d="M1987.88 1808.55c-1.48,-0.26 -2.64,-1.5 -3.23,-2.88 -0.59,-1.39 -0.7,-2.92 -0.81,-4.42 -0.57,-8.17 -1.14,-16.34 -1.7,-24.51 -0.98,8.15 -1.44,16.36 -1.39,24.56 0.02,3.48 0.51,7.61 3.57,9.27 1.52,0.83 3.48,0.79 4.97,-0.11 1.06,-0.63 1.92,-1.71 2.18,-2.91 -1.23,-0.05 -2.11,1.26 -3.58,1z"/>
    <path class="fil25" d="M2046.66 1802.38c-0.47,-15.48 -0.94,-30.95 -1.4,-46.43 -0.16,16.53 -0.31,33.06 -0.47,49.59 0.91,-1.22 1.82,-2.43 2.74,-3.65l-0.87 0.49z"/>
    <path class="fil25" d="M2019.85 1802.38c-0.47,-15.48 -0.94,-30.95 -1.4,-46.43 -0.16,16.53 -0.31,33.06 -0.47,49.59 0.92,-1.22 1.83,-2.43 2.74,-3.65l-0.87 0.49z"/>
    <path class="fil25" d="M1992.7 1802.38c-0.47,-15.48 -0.94,-30.95 -1.4,-46.43 -0.16,16.53 -0.31,33.06 -0.47,49.59 0.91,-1.22 1.82,-2.43 2.74,-3.65l-0.87 0.49z"/>
    <path class="fil21" d="M2035.46 1694.95c0.63,16.74 1.1,33.27 0.56,50.02 -0.45,-16.95 -1.67,-33.91 -0.81,-50.86l0.25 0.85z"/>
    <path class="fil21" d="M1980.62 1694.96c0.63,16.74 1.1,33.28 0.56,50.02 -0.45,-16.95 -1.67,-33.91 -0.81,-50.86l0.25 0.85z"/>
    <g>
     <path class="fil26" d="M2009.84 1766.78c-8.79,0 -15.92,-7.13 -15.92,-15.92 0,-8.8 7.13,-15.93 15.92,-15.93 8.8,0 15.93,7.13 15.93,15.93 0,8.79 -7.13,15.92 -15.93,15.92z"/>
     <path class="fil26" d="M2010.65 1736.9c4.08,0.24 8.1,1.94 10.65,5.32 2.46,3.26 3.23,7.74 1.99,11.64 -0.52,1.64 -1.92,3.43 -3.58,2.96 -2.19,-0.62 -1.62,-3.8 -1.24,-6.04 1.28,-7.31 -4.68,-11.26 -10.42,-13.84 0.86,-0.08 1.72,-0.09 2.59,-0.04z"/>
     <path class="fil26" d="M2000.17 1756.34c-3.06,-4.87 -2.66,-11.66 0.96,-16.13 -5.3,4.01 -7.01,12.08 -3.8,17.9 3.22,5.82 10.95,8.67 17.17,6.33 1.8,-0.68 2.37,-2.22 0.44,-2.34 -0.52,-0.03 -1.72,0.65 -2.38,0.72 -0.93,0.1 -1.95,-0.05 -2.87,-0.22 -3.84,-0.68 -7.43,-2.94 -9.51,-6.26z"/>
     <path class="fil26" d="M2023.42 1751.47c0.05,0.9 -0.23,2.06 -1.12,2.14 -0.93,0.08 -1.39,-1.08 -1.56,-2 -0.47,-2.6 -1.29,-5.39 -1.34,-8.02 2.47,1.43 3.85,5.13 4.02,7.87z"/>
     <path class="fil26" d="M2011.87 1761.42c-5.55,-0.44 -10.71,-4.22 -12.79,-9.38 0.61,2.75 2.23,5.27 4.48,6.97 2.25,1.7 5.11,2.57 7.93,2.41l0.39 0z"/>
    </g>
    <g>
     <path class="fil27" d="M2010.96 1765.65c-8.8,0 -15.93,-7.13 -15.93,-15.93 0,-8.8 7.13,-15.92 15.93,-15.92 8.8,0 15.93,7.13 15.93,15.92 0,8.8 -7.13,15.93 -15.93,15.93z"/>
     <path class="fil10" d="M2011.78 1735.78c4.08,0.24 8.09,1.94 10.64,5.31 2.47,3.27 3.23,7.75 1.99,11.65 -0.52,1.64 -1.92,3.43 -3.57,2.96 -2.19,-0.62 -1.62,-3.8 -1.23,-6.04 1.27,-7.31 -4.68,-11.27 -10.42,-13.84 0.86,-0.08 1.72,-0.09 2.59,-0.04z"/>
     <path class="fil28" d="M2001.3 1755.22c-3.06,-4.87 -2.65,-11.66 0.96,-16.13 -5.3,4.02 -7.01,12.08 -3.8,17.9 3.21,5.82 10.95,8.67 17.17,6.33 1.8,-0.68 2.37,-2.23 0.44,-2.34 -0.52,-0.03 -1.73,0.66 -2.39,0.72 -0.93,0.1 -1.95,-0.05 -2.86,-0.21 -3.84,-0.69 -7.43,-2.94 -9.51,-6.27z"/>
     <path class="fil10" d="M2024.55 1750.34c0.05,0.89 -0.23,2.06 -1.13,2.14 -0.93,0.08 -1.39,-1.08 -1.56,-2 -0.46,-2.6 -1.29,-5.39 -1.33,-8.02 2.47,1.43 3.84,5.13 4.02,7.88z"/>
     <path class="fil10" d="M2012.99 1760.29c-5.55,-0.44 -10.7,-4.21 -12.79,-9.37 0.62,2.75 2.23,5.27 4.48,6.97 2.25,1.7 5.11,2.57 7.93,2.41l0.38 0z"/>
    </g>
    <path class="fil10" d="M1954.58 1688.48c-0.6,1.4 -0.24,3.13 0.77,4.28 1.01,1.15 2.59,1.72 4.11,1.64 -1.42,1.58 -4.13,1.61 -5.75,0.25 -1.63,-1.37 -2.11,-3.84 -1.35,-5.82 0.94,-2.43 4.34,-4.45 6.78,-3.03 -1.33,1.35 -3.58,0.37 -4.56,2.68z"/>
    <path class="fil10" d="M1954.3 1803.91c-1.72,1.18 -2.7,3.36 -2.43,5.43 0.23,1.85 1.77,3.71 3.63,3.53 -0.57,-1.56 -1.14,-3.21 -0.92,-4.86 0.22,-1.65 1.51,-3.28 3.18,-3.29 1.4,-0 4.14,0.08 1.9,-1.42 -1.42,-0.96 -4.1,-0.25 -5.36,0.61z"/>
    <path class="fil10" d="M1963.98 1688.02c2.98,4.92 4.61,10.65 4.67,16.4 0.03,2.66 -0.31,5.43 -1.75,7.67 -1.44,2.24 -4.2,3.78 -6.78,3.13 3.8,-3.12 6.42,-7.66 7.19,-12.52 0.78,-4.86 -0.28,-9.99 -2.92,-14.14l-0.41 -0.54z"/>
    <path class="fil28" d="M1960.64 1757c-2.63,-0.11 -5.16,-1.58 -6.57,-3.81 -1.4,-2.22 -1.64,-5.14 -0.62,-7.56 -2.11,0.78 -3.49,3.06 -3.44,5.31 0.04,2.25 1.37,4.37 3.24,5.63 1.87,1.26 4.2,1.7 6.45,1.5 0.46,-0.04 0.98,-0.15 1.22,-0.55 0.23,-0.4 -0.22,-1.06 -0.61,-0.81l0.34 0.29z"/>
    <path class="fil22" d="M1896.59 1778.76c-2.65,-1.19 -2.47,-2.99 -3.46,-5.28 -1.13,-2.6 -2.95,-4.17 -3.57,-7.07 -1.09,-5.13 -0.82,-10.8 -0.7,-16.01 0.13,-5.48 0.08,-11.32 1.21,-16.7 0.53,-2.49 1.54,-3.57 2.84,-5.53 1.18,-1.76 2.11,-5.72 4.17,-6.56 0.22,0.65 -0.39,1.19 -0.31,1.43 -0.24,-0.84 -0.07,2.23 0.02,2.01 -0.15,0.9 -0.62,2.1 -0.68,3.02 -0.08,1.34 0.27,2.44 0.07,3.67 -0.08,0.48 -0.62,0.58 -0.65,1.34 -0.02,0.5 0.82,1.3 0.77,1.92 -0.07,0.86 -1.21,1.64 -1.24,2.26 -0.02,0.75 0.99,1.39 1.01,2.38 0.02,0.7 -0.67,1.32 -0.67,1.89 0,0.61 0.17,0.96 0.18,1.3 0.02,0.66 0.33,1.49 0.32,2.29 0,0.48 -0.94,1.45 -0.74,1.87 1.17,2.44 2.46,-3.55 2.15,-4.87 1.13,0.99 5.39,4.87 7.84,5.96l5.63 2.18c-4.55,0.78 -11.61,4.41 -13.3,8.93 0,-0.01 -0.24,-1.17 -0.45,-1.69 -0.06,0.82 -1.88,3.32 -1.89,3.34 -0.06,1.06 0.66,2.17 0.86,3.27 0.07,0.41 -0.82,0.98 -0.81,1.46 0.01,0.55 1.05,0.78 1.03,1.51 -0.02,1.25 -0.84,1.69 -0.86,2.9 0,0.12 0.99,0.78 1.09,1.22 0.12,0.53 -0.54,1.15 -0.5,1.7 0.03,0.4 0.6,0.79 0.57,1.14 -0.04,0.46 -0.41,1.67 -0.4,2.12 0,0.1 -0.58,0.92 -0.67,1.16 0.07,-0.2 1.14,1.29 1.14,1.43z"/>
    <path class="fil11" d="M1908.79 1711.94c-4.31,5.1 -6.2,12.15 -5,18.72 1.19,6.56 5.44,12.5 11.27,15.75 -5.13,0.43 -10.22,-2.65 -12.82,-7.1 -2.6,-4.44 -2.9,-10.01 -1.48,-14.96 1.42,-4.95 4.42,-9.34 8.01,-13.03l0.02 0.61z"/>
    <path class="fil11" d="M1910.89 1755.9c-4.12,0.2 -7.65,3.42 -9.26,7.22 -1.61,3.8 -1.64,8.08 -1.27,12.19 0.31,3.46 1.22,7.41 4.31,8.99 -1.02,-5.15 -2.04,-10.4 -1.44,-15.61 0.61,-5.21 3.12,-10.48 7.67,-13.09l-0.02 0.3z"/>
    <path class="fil29" d="M1963.15 1801.56c0.13,-0.21 -0.12,-0.61 -0.56,-1.09 0.62,-15.04 -19.87,-10.92 -27.52,-19.06 -4.28,-4.55 -5.88,-12.19 -5.59,-19.87 1.39,0.46 2.57,1.55 2.85,2.98 0.98,4.98 3.21,9.8 6.41,13.75 1.57,1.92 3.41,3.76 5.53,5.08 2.55,1.59 6.11,1.78 8.92,2.83 3.1,1.16 6.26,2.74 8.47,5.26 2.41,2.75 3.44,7.02 1.5,10.12z"/>
    <path class="fil30" d="M1962.53 1698.13c-0.21,0.06 -0.42,0.12 -0.63,0.17l0.63 -0.42 0.07 -0.05c-0.02,0.08 -0.03,0.16 -0.06,0.23 0,0.02 -0,0.05 -0.02,0.06z"/>
    <path class="fil31" d="M1930.65 1741.61c-0.39,-0.64 -0.75,-1.3 -1.06,-1.97 -0.66,-8.35 0.81,-16.94 5.47,-21.9 7.75,-8.23 28.66,-3.91 27.49,-19.63 0.71,-0.2 1.41,-0.4 2.11,-0.6 -0.34,7.09 -4.75,13.85 -11.11,17.01 -4.17,2.06 -9,2.66 -12.97,5.08 -3.59,2.19 -6.22,5.75 -7.77,9.66 -1.55,3.91 -2.1,8.15 -2.17,12.35z"/>
    <path class="fil32" d="M1867.22 1738.57c1.02,-2.95 2.21,-5.84 3.59,-8.64 0.38,-0.78 0.79,-1.56 1.41,-2.16 0.62,-0.61 1.5,-1 2.35,-0.84 0.99,0.19 1.72,1.11 1.99,2.08 0.27,0.98 0.17,2.01 0.07,3.02 -0.37,3.75 -0.74,7.5 -1.12,11.25 -0.55,-3.38 -1.11,-6.76 -1.66,-10.15 -0.1,-0.64 -0.27,-1.36 -0.84,-1.66 -0.58,-0.32 -1.33,0 -1.76,0.51 -0.42,0.51 -0.6,1.17 -0.82,1.79 -0.57,1.61 -1.46,3.11 -2.62,4.38l-0.6 0.45z"/>
    <path class="fil33" d="M1854.44 1734.34c0.65,-1.18 1.65,-2.22 2.93,-2.64 1.28,-0.42 2.85,-0.09 3.65,0.99 0.82,1.12 0.67,2.65 0.48,4.02 -0.55,3.96 -1.11,7.92 -1.66,11.88 -0.12,-2.53 -0.25,-5.06 -0.37,-7.59 -0.06,-1.24 -0.15,-2.56 -0.9,-3.55 -0.65,-0.87 -1.78,-1.34 -2.87,-1.21 -1.03,0.13 -1.82,0.8 -2.43,1.59 0.09,-1.15 0.6,-2.47 1.17,-3.5z"/>
    <path class="fil32" d="M1881.19 1741.47c0.2,-1.49 -2.35,-9.02 -0.42,-9.12 0.49,-0.02 0.9,0.44 0.98,0.92 0.2,1.13 -0.3,2.87 -0.31,4.07 -0.02,1.38 -0.06,2.76 -0.25,4.13z"/>
    <path class="fil32" d="M1887.19 1736.75c-0.19,-0.64 -0.36,-1.31 -0.78,-1.83 -0.42,-0.52 -1.16,-0.85 -1.76,-0.57 -0.76,0.36 -0.86,1.37 -0.86,2.2 0.01,3.28 0.03,6.55 0.04,9.82 0.39,-2.33 0.78,-4.66 1.17,-6.99 0.12,-0.69 0.36,-1.53 1.04,-1.68 0.59,-0.13 1.16,0.39 1.31,0.97 0.15,0.58 0,1.19 -0.15,1.77 1.15,-1.81 0.54,-1.84 -0.02,-3.7z"/>
    <path class="fil25" d="M1849.25 1738.11c-1.82,0.62 -3.36,2.05 -4.11,3.82 -0.76,1.77 -0.72,3.87 0.1,5.61 0.26,-0.37 0.24,-0.86 0.23,-1.31 -0.01,-0.45 0.06,-0.97 0.42,-1.24 0.36,-0.27 1.05,0 0.94,0.44 0.75,-2.48 1.58,-4.93 2.5,-7.35l-0.08 0.03z"/>
    <path class="fil25" d="M1842.82 1740.26c-0.26,2.16 -0.52,4.32 -0.78,6.48 -0.5,-2.31 -0.19,-4.79 0.85,-6.91l-0.07 0.43z"/>
    <path class="fil34" d="M1818.87 1743.39c6.19,-0.11 12.22,0.16 18.41,-0.06 0.7,-0.03 1.43,-0.06 2.05,-0.4 0.61,-0.34 1.06,-1.1 0.81,-1.75 -0.32,-0.85 -1.44,-0.98 -2.35,-0.97 -5.5,0.07 -10.98,0.05 -16.48,0.28 -7.21,0.29 -14.41,0.73 -21.62,1.09 3.18,0 6.39,1.65 9.57,1.87 3.12,0.22 6.46,-0.01 9.61,-0.05z"/>
    <path class="fil31" d="M1998.6 1842.72c5.09,-1.05 10.25,-2.09 15.19,-3.68 3.74,-1.2 7.44,-3.02 10.71,-4.7 4.82,-2.5 9.95,-3.67 14.68,-6.48 20.07,-11.86 39.38,-25.14 58.18,-38.82 16,-11.65 31.72,-22.95 47.81,-34.63 1.35,-1 4.96,-2.89 4.8,-4.56 -0.03,-0.38 -2.88,-2.27 -2.88,-2.27 -4.04,-3.12 -8.06,-6.23 -12.24,-9.16 -2.06,-1.44 -4.1,-2.93 -6.13,-4.43 -2.29,3.24 -5.18,6.06 -8.27,7.42 -17.12,7.51 -34.53,14.29 -52.46,19.62 -15.08,4.48 -30.45,8.04 -46.01,10.35 -17.9,2.66 -35.89,4.49 -54,3.64 -17.24,-0.81 -34.85,-3.31 -51.25,-8.84 -7.48,-2.53 -14.9,-5.55 -21.99,-9.12 0.1,0.6 0.21,1.19 0.3,1.79 0.24,1.57 0.46,3.14 0.65,4.71 0.04,0.34 0.09,0.68 0.13,1.02 0,0 0,-0 0,-0 0.23,1.91 0.43,3.83 0.59,5.74 0.04,0.39 0.06,0.78 0.09,1.17 0.04,0.52 0.08,1.05 0.12,1.57 0.03,0.37 0.05,0.73 0.07,1.09 0.03,0.57 0.07,1.14 0.1,1.71 0.02,0.32 0.03,0.64 0.04,0.96 0.03,0.64 0.05,1.28 0.07,1.92 0.01,0.25 0.02,0.51 0.02,0.77 0.02,0.89 0.04,1.77 0.05,2.66 0.59,1.49 1.36,2.95 2.34,4.39 1.96,2.87 4.73,4.88 7.01,7.46 1.23,1.41 3.44,7.9 4.62,7.97l4.84 5.3 0.02 0.03 0 0.01c2.48,3.55 5.73,6.98 8.55,10.01 6.94,7.48 15.37,13.77 24.45,18.4 5.05,2.57 10.4,4.8 15.86,6.34 5.16,1.45 10.23,1.53 15.44,2.43 5.91,1.04 12.74,-0.62 18.51,-1.8z"/>
   </g>
   <path class="fil3" d="M1766.06 667.85c0,0 -57.35,45.38 -59.65,46.14 -2.31,0.77 3.56,454.34 3.56,454.34l56.1 0 0 -500.49z"/>
   <polygon class="fil3" points="2847.63,636.29 2913.06,636.29 2913.06,1168.34 2844.69,1168.34 "/>
   <g>
    <g>
     <polygon class="fil35" points="2284.42,1712.3 2268.66,1782.08 2248.77,1782.08 2238.33,1735.8 2227.69,1782.08 2208.01,1782.08 2192.15,1712.3 2208.71,1712.3 2218.15,1762.21 2229.19,1712.3 2247.37,1712.3 2258.42,1762.4 2267.86,1712.3 "/>
     <path class="fil35" d="M2322.77 1769.74c5.93,0 8.83,-2.02 10.95,-5.53l12.55 8.34c-4.21,5.52 -10.84,10.84 -23.99,10.84 -17.47,0 -28.52,-11.94 -28.52,-27.7 0,-15.26 12.25,-27.81 27.51,-27.81 17.27,0 27.51,13.66 27.51,26.71 0,2.61 -0.2,4.62 -0.4,6.02l-38.36 0c1.71,5.93 6.43,9.15 12.75,9.15zm10.44 -19.59l0 0c-1.4,-6.03 -5.42,-9.73 -11.55,-9.73 -6.13,0 -10.44,3.3 -11.84,9.73l23.39 0z"/>
     <path class="fil35" d="M2459.52 1747.14c0,21.38 -14.66,34.94 -35.95,34.94l-27.71 0 0 -69.79 27.71 0c21.29,0 35.95,13.46 35.95,34.85zm-16.97 0.19l0 0c0,-13.15 -7.83,-20.18 -19.48,-20.18l-10.44 0 0 40.07 10.44 0c11.65,0 19.48,-7.04 19.48,-19.89z"/>
     <path class="fil35" d="M2504.19 1769.74c5.93,0 8.84,-2.02 10.95,-5.53l12.54 8.34c-4.21,5.52 -10.84,10.84 -23.99,10.84 -17.47,0 -28.52,-11.94 -28.52,-27.7 0,-15.26 12.25,-27.81 27.51,-27.81 17.28,0 27.52,13.66 27.52,26.71 0,2.61 -0.2,4.62 -0.4,6.02l-38.36 0c1.71,5.93 6.43,9.15 12.75,9.15zm10.44 -19.59l0 0c-1.4,-6.03 -5.42,-9.73 -11.55,-9.73 -6.13,0 -10.44,3.3 -11.84,9.73l23.39 0z"/>
     <path class="fil35" d="M2543.45 1769.23l13.86 -5.32c1.4,4.42 4.92,6.92 10.34,6.92 3.82,0 5.82,-1.5 5.82,-3.92 0,-8.33 -27.61,-4.31 -27.61,-22.49 0,-10.24 8.44,-16.46 21.79,-16.46 10.84,0 18.67,4.31 20.79,11.75l-13.86 5.41c-1.21,-3.31 -3.72,-5.01 -7.23,-5.01 -3.42,0 -5.13,1.3 -5.13,3.52 0,7.53 27.62,2.71 27.62,22.19 0,10.94 -8.84,17.56 -22.8,17.56 -11.95,0 -20.48,-4.92 -23.59,-14.16z"/>
     <path class="fil35" d="M2604.9 1711.8c0,-6.02 4.62,-10.34 10.54,-10.34 5.93,0 10.54,4.32 10.54,10.34 0,6.03 -4.61,10.24 -10.54,10.24 -5.92,0 -10.54,-4.21 -10.54,-10.24zm2.11 17.37l0 0 16.77 0 0 52.92 -16.77 0 0 -52.92z"/>
     <path class="fil35" d="M2698.28 1729.17l0 44.58c0,16.27 -10.75,27.61 -29.53,27.61 -15.16,0 -23.39,-6.43 -26.91,-15.36l14.16 -5.52c2.11,4.81 6.93,6.92 12.85,6.92 8.83,0 13.95,-4.81 13.95,-12.05l0 -1.51c-3.72,3.81 -8.74,6.02 -15.26,6.02 -15.36,0 -26.31,-11.54 -26.31,-25.81 0,-14.26 11.05,-26.1 26.31,-26.1 6.53,0 11.55,2.2 15.26,6.03l0 -4.82 15.47 0zm-16.47 25.7l0 0c0,-6.92 -4.92,-12.24 -12.04,-12.24 -6.83,0 -11.95,5.41 -11.95,12.24 0,6.83 5.12,12.25 11.95,12.25 7.12,0 12.04,-5.32 12.04,-12.25z"/>
     <path class="fil35" d="M2769.46 1748.45l0 33.64 -16.77 0 0 -30.32c0,-5.72 -3.92,-9.04 -8.94,-9.04 -5.02,0 -9.14,3.62 -9.14,8.44l0 30.92 -16.77 0 0 -52.92 15.77 0 0 4.21c3.61,-3.31 8.83,-5.52 15.26,-5.52 12.45,0 20.58,8.43 20.58,20.58z"/>
     <polygon class="fil35" points="2854.2,1753.57 2854.2,1782.08 2837.43,1782.08 2837.43,1753.76 2812.13,1712.3 2830.9,1712.3 2845.86,1738.91 2860.73,1712.3 2879.5,1712.3 "/>
     <path class="fil35" d="M2878.99 1755.68c0,-15.87 12.05,-27.71 28.92,-27.71 16.97,0 29.02,11.84 29.02,27.71 0,15.76 -12.05,27.7 -29.02,27.7 -16.87,0 -28.92,-11.94 -28.92,-27.7zm41.07 -0.11l0 0c0,-7.53 -4.72,-12.75 -12.05,-12.75 -7.33,0 -12.15,5.21 -12.15,12.85 0,7.42 4.82,12.85 12.15,12.85 7.23,0 12.05,-5.32 12.05,-12.95z"/>
     <path class="fil35" d="M3004.6 1729.17l0 52.92 -15.66 0 0 -4.42c-3.71,3.52 -8.94,5.72 -14.76,5.72 -13.56,0 -20.38,-9.24 -20.38,-21.18l0 -33.04 16.77 0 0 30.83c0,4.92 3.21,8.53 8.63,8.53 5.33,0 8.74,-3.51 8.74,-8.53l0 -30.83 16.67 0z"/>
     <path class="fil35" d="M3054.7 1727.87l0 15.66c-8.84,0 -13.66,3.32 -13.66,10.24l0 28.32 -16.77 0 0 -52.92 15.77 0 0 4.52c3.61,-3.52 8.74,-5.83 14.66,-5.83z"/>
     <path class="fil35" d="M3162.73 1747.14c0,21.38 -14.66,34.94 -35.94,34.94l-27.71 0 0 -69.79 27.71 0c21.28,0 35.94,13.46 35.94,34.85zm-16.97 0.19l0 0c0,-13.15 -7.83,-20.18 -19.48,-20.18l-10.44 0 0 40.07 10.44 0c11.65,0 19.48,-7.04 19.48,-19.89z"/>
     <path class="fil35" d="M3211.13 1727.87l0 15.66c-8.84,0 -13.66,3.32 -13.66,10.24l0 28.32 -16.77 0 0 -52.92 15.77 0 0 4.52c3.61,-3.52 8.74,-5.83 14.66,-5.83z"/>
     <path class="fil35" d="M3252.59 1769.74c5.93,0 8.84,-2.02 10.95,-5.53l12.54 8.34c-4.21,5.52 -10.84,10.84 -23.99,10.84 -17.47,0 -28.52,-11.94 -28.52,-27.7 0,-15.26 12.25,-27.81 27.51,-27.81 17.28,0 27.52,13.66 27.52,26.71 0,2.61 -0.2,4.62 -0.4,6.02l-38.36 0c1.71,5.93 6.43,9.15 12.75,9.15zm10.44 -19.59l0 0c-1.4,-6.03 -5.42,-9.73 -11.55,-9.73 -6.13,0 -10.44,3.3 -11.84,9.73l23.39 0z"/>
     <path class="fil35" d="M3350.68 1729.17l0 52.92 -15.46 0 0 -4.83c-3.72,3.93 -8.74,6.13 -15.27,6.13 -15.36,0 -26.41,-11.84 -26.41,-27.7 0,-15.87 11.05,-26.71 26.41,-26.71 6.53,0 11.55,2.01 15.27,5.73l0 -5.53 15.46 0zm-16.07 26.51l0 0c0,-7.73 -4.92,-13.05 -12.25,-13.05 -7.03,0 -12.15,5.52 -12.15,13.05 0,7.53 5.02,12.95 12.15,12.95 7.33,0 12.25,-5.32 12.25,-12.95z"/>
     <path class="fil35" d="M3453.1 1749.05l0 32.93 -16.77 0 0 -29.71c0,-5.02 -2.51,-9.54 -7.94,-9.54 -5.82,0 -8.33,4.52 -8.33,8.34l0 30.92 -16.77 0 0 -29.71c0,-5.02 -2.51,-9.54 -7.94,-9.54 -5.82,0 -8.33,4.42 -8.33,8.34l0 30.92 -16.77 0 0 -52.81 15.77 0 0 4.32c3.31,-3.32 8.33,-5.62 14.66,-5.62 7.63,0 12.55,2.41 15.46,6.92 3.12,-4.11 8.74,-6.92 16.87,-6.92 13.36,0 20.08,9.64 20.08,21.19z"/>
     <path class="fil35" d="M3468.96 1769.23l13.86 -5.32c1.4,4.42 4.91,6.92 10.34,6.92 3.82,0 5.82,-1.5 5.82,-3.92 0,-8.33 -27.61,-4.31 -27.61,-22.49 0,-10.24 8.44,-16.46 21.79,-16.46 10.84,0 18.67,4.31 20.79,11.75l-13.86 5.41c-1.2,-3.31 -3.71,-5.01 -7.23,-5.01 -3.41,0 -5.12,1.3 -5.12,3.52 0,7.53 27.62,2.71 27.62,22.19 0,10.94 -8.84,17.56 -22.8,17.56 -11.95,0 -20.48,-4.92 -23.59,-14.16z"/>
     <polygon class="fil35" points="3562.43,1712.3 3579.19,1712.3 3579.19,1782.08 3562.43,1782.08 "/>
     <path class="fil35" d="M3651.59 1748.45l0 33.64 -16.77 0 0 -30.32c0,-5.72 -3.92,-9.04 -8.94,-9.04 -5.02,0 -9.14,3.62 -9.14,8.44l0 30.92 -16.77 0 0 -52.92 15.77 0 0 4.21c3.61,-3.31 8.83,-5.52 15.26,-5.52 12.45,0 20.59,8.43 20.59,20.58z"/>
     <path class="fil35" d="M3674.98 1761.7l0 -18.28 -8.83 0 0 -14.26 4.21 0c3.72,0 5.63,-2.01 5.63,-5.92l0 -8.13 16.27 0 0 14.05 12.04 0 0 14.26 -12.65 0 0 16.28c0,5.11 2.71,7.83 7.43,7.83l5.52 0 0 14.56 -9.04 0c-13.65,0 -20.58,-8.13 -20.58,-20.38z"/>
     <path class="fil35" d="M3717.95 1755.68c0,-15.87 12.04,-27.71 28.92,-27.71 16.97,0 29.01,11.84 29.01,27.71 0,15.76 -12.04,27.7 -29.01,27.7 -16.88,0 -28.92,-11.94 -28.92,-27.7zm41.07 -0.11l0 0c0,-7.53 -4.72,-12.75 -12.05,-12.75 -7.33,0 -12.15,5.21 -12.15,12.85 0,7.42 4.82,12.85 12.15,12.85 7.23,0 12.05,-5.32 12.05,-12.95z"/>
     <path class="fil35" d="M3841.64 1754.27l-1.81 0 0 27.81 -16.66 0 0 -69.79 29.32 0c15.26,0 24.8,8.84 24.8,20.99 0,10.13 -6.93,18.17 -18.18,20.38l19.69 28.41 -18.67 0 -18.48 -27.81zm-1.81 -11.85l0 0 12.15 0c5.63,0 8.94,-2.91 8.94,-7.72 0,-4.72 -3.31,-7.74 -8.94,-7.74l-12.15 0 0 15.47z"/>
     <path class="fil35" d="M3919.16 1769.74c5.93,0 8.84,-2.02 10.95,-5.53l12.55 8.34c-4.21,5.52 -10.84,10.84 -24,10.84 -17.47,0 -28.52,-11.94 -28.52,-27.7 0,-15.26 12.25,-27.81 27.52,-27.81 17.27,0 27.51,13.66 27.51,26.71 0,2.61 -0.2,4.62 -0.4,6.02l-38.35 0c1.71,5.93 6.43,9.15 12.75,9.15zm10.44 -19.59l0 0c-1.4,-6.03 -5.42,-9.73 -11.55,-9.73 -6.12,0 -10.44,3.3 -11.85,9.73l23.4 0z"/>
     <path class="fil35" d="M4017.25 1729.17l0 52.92 -15.46 0 0 -4.83c-3.71,3.93 -8.74,6.13 -15.27,6.13 -15.36,0 -26.4,-11.84 -26.4,-27.7 0,-15.87 11.05,-26.71 26.4,-26.71 6.53,0 11.56,2.01 15.27,5.73l0 -5.53 15.46 0zm-16.07 26.51l0 0c0,-7.73 -4.92,-13.05 -12.25,-13.05 -7.03,0 -12.15,5.52 -12.15,13.05 0,7.53 5.02,12.95 12.15,12.95 7.33,0 12.25,-5.32 12.25,-12.95z"/>
     <polygon class="fil35" points="4036.83,1708.69 4053.6,1708.69 4053.6,1782.08 4036.83,1782.08 "/>
     <path class="fil35" d="M4071.16 1711.8c0,-6.02 4.62,-10.34 10.54,-10.34 5.93,0 10.54,4.32 10.54,10.34 0,6.03 -4.61,10.24 -10.54,10.24 -5.93,0 -10.54,-4.21 -10.54,-10.24zm2.11 17.37l0 0 16.77 0 0 52.92 -16.77 0 0 -52.92z"/>
     <path class="fil35" d="M4114.84 1761.7l0 -18.28 -8.83 0 0 -14.26 4.22 0c3.71,0 5.63,-2.01 5.63,-5.92l0 -8.13 16.27 0 0 14.05 12.05 0 0 14.26 -12.65 0 0 16.28c0,5.11 2.71,7.83 7.43,7.83l5.52 0 0 14.56 -9.03 0c-13.66,0 -20.59,-8.13 -20.59,-20.38z"/>
     <polygon class="fil35" points="4213.74,1729.17 4194.96,1782.08 4188.63,1800.06 4172.17,1800.06 4179.1,1782.08 4173.47,1782.08 4156.6,1729.17 4173.88,1729.17 4184.32,1768.93 4196.57,1729.17 "/>
    </g>
   </g>
  </g>
 </g>
</svg>
